%TF.GenerationSoftware,KiCad,Pcbnew,(5.1.10)-1*%
%TF.CreationDate,2023-08-21T21:32:28-05:00*%
%TF.ProjectId,auxFilter,61757846-696c-4746-9572-2e6b69636164,rev?*%
%TF.SameCoordinates,Original*%
%TF.FileFunction,Legend,Top*%
%TF.FilePolarity,Positive*%
%FSLAX46Y46*%
G04 Gerber Fmt 4.6, Leading zero omitted, Abs format (unit mm)*
G04 Created by KiCad (PCBNEW (5.1.10)-1) date 2023-08-21 21:32:28*
%MOMM*%
%LPD*%
G01*
G04 APERTURE LIST*
%ADD10C,0.150000*%
%ADD11C,0.120000*%
%ADD12C,0.125000*%
G04 APERTURE END LIST*
D10*
X153741738Y-95654880D02*
X153932214Y-95654880D01*
X154027452Y-95702500D01*
X154122690Y-95797738D01*
X154170309Y-95988214D01*
X154170309Y-96321547D01*
X154122690Y-96512023D01*
X154027452Y-96607261D01*
X153932214Y-96654880D01*
X153741738Y-96654880D01*
X153646500Y-96607261D01*
X153551261Y-96512023D01*
X153503642Y-96321547D01*
X153503642Y-95988214D01*
X153551261Y-95797738D01*
X153646500Y-95702500D01*
X153741738Y-95654880D01*
X154598880Y-95654880D02*
X154598880Y-96464404D01*
X154646500Y-96559642D01*
X154694119Y-96607261D01*
X154789357Y-96654880D01*
X154979833Y-96654880D01*
X155075071Y-96607261D01*
X155122690Y-96559642D01*
X155170309Y-96464404D01*
X155170309Y-95654880D01*
X155503642Y-95654880D02*
X156075071Y-95654880D01*
X155789357Y-96654880D02*
X155789357Y-95654880D01*
X156408404Y-96654880D02*
X156408404Y-95654880D01*
X156789357Y-95654880D01*
X156884595Y-95702500D01*
X156932214Y-95750119D01*
X156979833Y-95845357D01*
X156979833Y-95988214D01*
X156932214Y-96083452D01*
X156884595Y-96131071D01*
X156789357Y-96178690D01*
X156408404Y-96178690D01*
X157408404Y-95654880D02*
X157408404Y-96464404D01*
X157456023Y-96559642D01*
X157503642Y-96607261D01*
X157598880Y-96654880D01*
X157789357Y-96654880D01*
X157884595Y-96607261D01*
X157932214Y-96559642D01*
X157979833Y-96464404D01*
X157979833Y-95654880D01*
X158313166Y-95654880D02*
X158884595Y-95654880D01*
X158598880Y-96654880D02*
X158598880Y-95654880D01*
X118340428Y-96210380D02*
X118340428Y-95210380D01*
X118816619Y-96210380D02*
X118816619Y-95210380D01*
X119388047Y-96210380D01*
X119388047Y-95210380D01*
X119864238Y-96210380D02*
X119864238Y-95210380D01*
X120245190Y-95210380D01*
X120340428Y-95258000D01*
X120388047Y-95305619D01*
X120435666Y-95400857D01*
X120435666Y-95543714D01*
X120388047Y-95638952D01*
X120340428Y-95686571D01*
X120245190Y-95734190D01*
X119864238Y-95734190D01*
X120864238Y-95210380D02*
X120864238Y-96019904D01*
X120911857Y-96115142D01*
X120959476Y-96162761D01*
X121054714Y-96210380D01*
X121245190Y-96210380D01*
X121340428Y-96162761D01*
X121388047Y-96115142D01*
X121435666Y-96019904D01*
X121435666Y-95210380D01*
X121769000Y-95210380D02*
X122340428Y-95210380D01*
X122054714Y-96210380D02*
X122054714Y-95210380D01*
D11*
X153797000Y-98996500D02*
X152908000Y-99568000D01*
X153733500Y-98996500D02*
X152908000Y-98488500D01*
X149479000Y-98996500D02*
X153733500Y-98996500D01*
D10*
X149249142Y-98194761D02*
X149392000Y-98242380D01*
X149630095Y-98242380D01*
X149725333Y-98194761D01*
X149772952Y-98147142D01*
X149820571Y-98051904D01*
X149820571Y-97956666D01*
X149772952Y-97861428D01*
X149725333Y-97813809D01*
X149630095Y-97766190D01*
X149439619Y-97718571D01*
X149344380Y-97670952D01*
X149296761Y-97623333D01*
X149249142Y-97528095D01*
X149249142Y-97432857D01*
X149296761Y-97337619D01*
X149344380Y-97290000D01*
X149439619Y-97242380D01*
X149677714Y-97242380D01*
X149820571Y-97290000D01*
X150249142Y-98242380D02*
X150249142Y-97242380D01*
X151249142Y-97290000D02*
X151153904Y-97242380D01*
X151011047Y-97242380D01*
X150868190Y-97290000D01*
X150772952Y-97385238D01*
X150725333Y-97480476D01*
X150677714Y-97670952D01*
X150677714Y-97813809D01*
X150725333Y-98004285D01*
X150772952Y-98099523D01*
X150868190Y-98194761D01*
X151011047Y-98242380D01*
X151106285Y-98242380D01*
X151249142Y-98194761D01*
X151296761Y-98147142D01*
X151296761Y-97813809D01*
X151106285Y-97813809D01*
X151487238Y-98337619D02*
X152249142Y-98337619D01*
X152487238Y-98242380D02*
X152487238Y-97242380D01*
X152725333Y-97242380D01*
X152868190Y-97290000D01*
X152963428Y-97385238D01*
X153011047Y-97480476D01*
X153058666Y-97670952D01*
X153058666Y-97813809D01*
X153011047Y-98004285D01*
X152963428Y-98099523D01*
X152868190Y-98194761D01*
X152725333Y-98242380D01*
X152487238Y-98242380D01*
X153487238Y-98242380D02*
X153487238Y-97242380D01*
X154534857Y-98242380D02*
X154201523Y-97766190D01*
X153963428Y-98242380D02*
X153963428Y-97242380D01*
X154344380Y-97242380D01*
X154439619Y-97290000D01*
X154487238Y-97337619D01*
X154534857Y-97432857D01*
X154534857Y-97575714D01*
X154487238Y-97670952D01*
X154439619Y-97718571D01*
X154344380Y-97766190D01*
X153963428Y-97766190D01*
X162948904Y-113990500D02*
X162853666Y-113942880D01*
X162710809Y-113942880D01*
X162567952Y-113990500D01*
X162472714Y-114085738D01*
X162425095Y-114180976D01*
X162377476Y-114371452D01*
X162377476Y-114514309D01*
X162425095Y-114704785D01*
X162472714Y-114800023D01*
X162567952Y-114895261D01*
X162710809Y-114942880D01*
X162806047Y-114942880D01*
X162948904Y-114895261D01*
X162996523Y-114847642D01*
X162996523Y-114514309D01*
X162806047Y-114514309D01*
X162107666Y-111402880D02*
X162441000Y-112402880D01*
X162774333Y-111402880D01*
X163679095Y-112402880D02*
X163345761Y-111926690D01*
X163107666Y-112402880D02*
X163107666Y-111402880D01*
X163488619Y-111402880D01*
X163583857Y-111450500D01*
X163631476Y-111498119D01*
X163679095Y-111593357D01*
X163679095Y-111736214D01*
X163631476Y-111831452D01*
X163583857Y-111879071D01*
X163488619Y-111926690D01*
X163107666Y-111926690D01*
X161925119Y-108926380D02*
X162258452Y-109926380D01*
X162591785Y-108926380D01*
X162925119Y-109545428D02*
X163687023Y-109545428D01*
X163306071Y-109926380D02*
X163306071Y-109164476D01*
X162091785Y-107275261D02*
X162234642Y-107322880D01*
X162472738Y-107322880D01*
X162567976Y-107275261D01*
X162615595Y-107227642D01*
X162663214Y-107132404D01*
X162663214Y-107037166D01*
X162615595Y-106941928D01*
X162567976Y-106894309D01*
X162472738Y-106846690D01*
X162282261Y-106799071D01*
X162187023Y-106751452D01*
X162139404Y-106703833D01*
X162091785Y-106608595D01*
X162091785Y-106513357D01*
X162139404Y-106418119D01*
X162187023Y-106370500D01*
X162282261Y-106322880D01*
X162520357Y-106322880D01*
X162663214Y-106370500D01*
X163091785Y-107322880D02*
X163091785Y-106322880D01*
X163472738Y-106322880D01*
X163567976Y-106370500D01*
X163615595Y-106418119D01*
X163663214Y-106513357D01*
X163663214Y-106656214D01*
X163615595Y-106751452D01*
X163567976Y-106799071D01*
X163472738Y-106846690D01*
X163091785Y-106846690D01*
X162107666Y-104655880D02*
X162107666Y-103655880D01*
X162441000Y-104370166D01*
X162774333Y-103655880D01*
X162774333Y-104655880D01*
X163250523Y-104655880D02*
X163250523Y-103655880D01*
X163821952Y-104655880D02*
X163393380Y-104084452D01*
X163821952Y-103655880D02*
X163250523Y-104227309D01*
D12*
X162171142Y-101453190D02*
X162337809Y-101953190D01*
X162504476Y-101453190D01*
X162671142Y-101953190D02*
X162671142Y-101453190D01*
X162671142Y-101691285D02*
X162956857Y-101691285D01*
X162956857Y-101953190D02*
X162956857Y-101453190D01*
X163361619Y-101691285D02*
X163194952Y-101691285D01*
X163194952Y-101953190D02*
X163194952Y-101453190D01*
X163433047Y-101453190D01*
D10*
X162163214Y-99702880D02*
X162163214Y-98702880D01*
X162163214Y-99179071D02*
X162734642Y-99179071D01*
X162734642Y-99702880D02*
X162734642Y-98702880D01*
X163544166Y-99179071D02*
X163210833Y-99179071D01*
X163210833Y-99702880D02*
X163210833Y-98702880D01*
X163687023Y-98702880D01*
X162821904Y-96210500D02*
X162726666Y-96162880D01*
X162583809Y-96162880D01*
X162440952Y-96210500D01*
X162345714Y-96305738D01*
X162298095Y-96400976D01*
X162250476Y-96591452D01*
X162250476Y-96734309D01*
X162298095Y-96924785D01*
X162345714Y-97020023D01*
X162440952Y-97115261D01*
X162583809Y-97162880D01*
X162679047Y-97162880D01*
X162821904Y-97115261D01*
X162869523Y-97067642D01*
X162869523Y-96734309D01*
X162679047Y-96734309D01*
X114371404Y-114117500D02*
X114276166Y-114069880D01*
X114133309Y-114069880D01*
X113990452Y-114117500D01*
X113895214Y-114212738D01*
X113847595Y-114307976D01*
X113799976Y-114498452D01*
X113799976Y-114641309D01*
X113847595Y-114831785D01*
X113895214Y-114927023D01*
X113990452Y-115022261D01*
X114133309Y-115069880D01*
X114228547Y-115069880D01*
X114371404Y-115022261D01*
X114419023Y-114974642D01*
X114419023Y-114641309D01*
X114228547Y-114641309D01*
X113339666Y-111402880D02*
X113673000Y-112402880D01*
X114006333Y-111402880D01*
X114911095Y-112402880D02*
X114577761Y-111926690D01*
X114339666Y-112402880D02*
X114339666Y-111402880D01*
X114720619Y-111402880D01*
X114815857Y-111450500D01*
X114863476Y-111498119D01*
X114911095Y-111593357D01*
X114911095Y-111736214D01*
X114863476Y-111831452D01*
X114815857Y-111879071D01*
X114720619Y-111926690D01*
X114339666Y-111926690D01*
X113157119Y-108799380D02*
X113490452Y-109799380D01*
X113823785Y-108799380D01*
X114157119Y-109418428D02*
X114919023Y-109418428D01*
X114538071Y-109799380D02*
X114538071Y-109037476D01*
X113323785Y-107275261D02*
X113466642Y-107322880D01*
X113704738Y-107322880D01*
X113799976Y-107275261D01*
X113847595Y-107227642D01*
X113895214Y-107132404D01*
X113895214Y-107037166D01*
X113847595Y-106941928D01*
X113799976Y-106894309D01*
X113704738Y-106846690D01*
X113514261Y-106799071D01*
X113419023Y-106751452D01*
X113371404Y-106703833D01*
X113323785Y-106608595D01*
X113323785Y-106513357D01*
X113371404Y-106418119D01*
X113419023Y-106370500D01*
X113514261Y-106322880D01*
X113752357Y-106322880D01*
X113895214Y-106370500D01*
X114323785Y-107322880D02*
X114323785Y-106322880D01*
X114704738Y-106322880D01*
X114799976Y-106370500D01*
X114847595Y-106418119D01*
X114895214Y-106513357D01*
X114895214Y-106656214D01*
X114847595Y-106751452D01*
X114799976Y-106799071D01*
X114704738Y-106846690D01*
X114323785Y-106846690D01*
X113212666Y-104846380D02*
X113212666Y-103846380D01*
X113546000Y-104560666D01*
X113879333Y-103846380D01*
X113879333Y-104846380D01*
X114355523Y-104846380D02*
X114355523Y-103846380D01*
X114926952Y-104846380D02*
X114498380Y-104274952D01*
X114926952Y-103846380D02*
X114355523Y-104417809D01*
D12*
X113530142Y-101707190D02*
X113696809Y-102207190D01*
X113863476Y-101707190D01*
X114030142Y-102207190D02*
X114030142Y-101707190D01*
X114030142Y-101945285D02*
X114315857Y-101945285D01*
X114315857Y-102207190D02*
X114315857Y-101707190D01*
X114720619Y-101945285D02*
X114553952Y-101945285D01*
X114553952Y-102207190D02*
X114553952Y-101707190D01*
X114792047Y-101707190D01*
D10*
X113458714Y-99829880D02*
X113458714Y-98829880D01*
X113458714Y-99306071D02*
X114030142Y-99306071D01*
X114030142Y-99829880D02*
X114030142Y-98829880D01*
X114839666Y-99306071D02*
X114506333Y-99306071D01*
X114506333Y-99829880D02*
X114506333Y-98829880D01*
X114982523Y-98829880D01*
X114244404Y-96337500D02*
X114149166Y-96289880D01*
X114006309Y-96289880D01*
X113863452Y-96337500D01*
X113768214Y-96432738D01*
X113720595Y-96527976D01*
X113672976Y-96718452D01*
X113672976Y-96861309D01*
X113720595Y-97051785D01*
X113768214Y-97147023D01*
X113863452Y-97242261D01*
X114006309Y-97289880D01*
X114101547Y-97289880D01*
X114244404Y-97242261D01*
X114292023Y-97194642D01*
X114292023Y-96861309D01*
X114101547Y-96861309D01*
X120912380Y-115133380D02*
X120912380Y-114133380D01*
X120912380Y-114609571D02*
X121483809Y-114609571D01*
X121483809Y-115133380D02*
X121483809Y-114133380D01*
X122293333Y-114609571D02*
X121960000Y-114609571D01*
X121960000Y-115133380D02*
X121960000Y-114133380D01*
X122436190Y-114133380D01*
X122817142Y-115038142D02*
X122864761Y-115085761D01*
X122817142Y-115133380D01*
X122769523Y-115085761D01*
X122817142Y-115038142D01*
X122817142Y-115133380D01*
X122817142Y-114514333D02*
X122864761Y-114561952D01*
X122817142Y-114609571D01*
X122769523Y-114561952D01*
X122817142Y-114514333D01*
X122817142Y-114609571D01*
X123293333Y-115038142D02*
X123340952Y-115085761D01*
X123293333Y-115133380D01*
X123245714Y-115085761D01*
X123293333Y-115038142D01*
X123293333Y-115133380D01*
X123293333Y-114514333D02*
X123340952Y-114561952D01*
X123293333Y-114609571D01*
X123245714Y-114561952D01*
X123293333Y-114514333D01*
X123293333Y-114609571D01*
X123721904Y-115085761D02*
X123864761Y-115133380D01*
X124102857Y-115133380D01*
X124198095Y-115085761D01*
X124245714Y-115038142D01*
X124293333Y-114942904D01*
X124293333Y-114847666D01*
X124245714Y-114752428D01*
X124198095Y-114704809D01*
X124102857Y-114657190D01*
X123912380Y-114609571D01*
X123817142Y-114561952D01*
X123769523Y-114514333D01*
X123721904Y-114419095D01*
X123721904Y-114323857D01*
X123769523Y-114228619D01*
X123817142Y-114181000D01*
X123912380Y-114133380D01*
X124150476Y-114133380D01*
X124293333Y-114181000D01*
X124721904Y-115133380D02*
X124721904Y-114133380D01*
X125102857Y-114133380D01*
X125198095Y-114181000D01*
X125245714Y-114228619D01*
X125293333Y-114323857D01*
X125293333Y-114466714D01*
X125245714Y-114561952D01*
X125198095Y-114609571D01*
X125102857Y-114657190D01*
X124721904Y-114657190D01*
X125674285Y-114847666D02*
X126150476Y-114847666D01*
X125579047Y-115133380D02*
X125912380Y-114133380D01*
X126245714Y-115133380D01*
X127150476Y-115038142D02*
X127102857Y-115085761D01*
X126960000Y-115133380D01*
X126864761Y-115133380D01*
X126721904Y-115085761D01*
X126626666Y-114990523D01*
X126579047Y-114895285D01*
X126531428Y-114704809D01*
X126531428Y-114561952D01*
X126579047Y-114371476D01*
X126626666Y-114276238D01*
X126721904Y-114181000D01*
X126864761Y-114133380D01*
X126960000Y-114133380D01*
X127102857Y-114181000D01*
X127150476Y-114228619D01*
X127579047Y-114609571D02*
X127912380Y-114609571D01*
X128055238Y-115133380D02*
X127579047Y-115133380D01*
X127579047Y-114133380D01*
X128055238Y-114133380D01*
X120507523Y-98877380D02*
X120507523Y-97877380D01*
X120507523Y-98353571D02*
X121078952Y-98353571D01*
X121078952Y-98877380D02*
X121078952Y-97877380D01*
X121888476Y-98353571D02*
X121555142Y-98353571D01*
X121555142Y-98877380D02*
X121555142Y-97877380D01*
X122031333Y-97877380D01*
X122412285Y-98782142D02*
X122459904Y-98829761D01*
X122412285Y-98877380D01*
X122364666Y-98829761D01*
X122412285Y-98782142D01*
X122412285Y-98877380D01*
X122412285Y-98258333D02*
X122459904Y-98305952D01*
X122412285Y-98353571D01*
X122364666Y-98305952D01*
X122412285Y-98258333D01*
X122412285Y-98353571D01*
X122888476Y-98782142D02*
X122936095Y-98829761D01*
X122888476Y-98877380D01*
X122840857Y-98829761D01*
X122888476Y-98782142D01*
X122888476Y-98877380D01*
X122888476Y-98258333D02*
X122936095Y-98305952D01*
X122888476Y-98353571D01*
X122840857Y-98305952D01*
X122888476Y-98258333D01*
X122888476Y-98353571D01*
X123364666Y-98877380D02*
X123364666Y-97877380D01*
X123698000Y-98591666D01*
X124031333Y-97877380D01*
X124031333Y-98877380D01*
X124459904Y-98591666D02*
X124936095Y-98591666D01*
X124364666Y-98877380D02*
X124698000Y-97877380D01*
X125031333Y-98877380D01*
X125936095Y-98877380D02*
X125602761Y-98401190D01*
X125364666Y-98877380D02*
X125364666Y-97877380D01*
X125745619Y-97877380D01*
X125840857Y-97925000D01*
X125888476Y-97972619D01*
X125936095Y-98067857D01*
X125936095Y-98210714D01*
X125888476Y-98305952D01*
X125840857Y-98353571D01*
X125745619Y-98401190D01*
X125364666Y-98401190D01*
X126364666Y-98877380D02*
X126364666Y-97877380D01*
X126936095Y-98877380D02*
X126507523Y-98305952D01*
X126936095Y-97877380D02*
X126364666Y-98448809D01*
D11*
%TO.C,C1*%
X143860000Y-115789000D02*
X143160000Y-115789000D01*
X143160000Y-114589000D02*
X143860000Y-114589000D01*
%TO.C,C2*%
X130330500Y-99601500D02*
X130330500Y-100301500D01*
X129130500Y-100301500D02*
X129130500Y-99601500D01*
%TO.C,C3*%
X150578300Y-104079600D02*
X149878300Y-104079600D01*
X149878300Y-102879600D02*
X150578300Y-102879600D01*
%TO.C,C4*%
X132430000Y-114074500D02*
X131730000Y-114074500D01*
X131730000Y-112874500D02*
X132430000Y-112874500D01*
%TO.C,C5*%
X154971000Y-105699000D02*
X155671000Y-105699000D01*
X155671000Y-106899000D02*
X154971000Y-106899000D01*
%TO.C,C6*%
X136175000Y-106715000D02*
X136875000Y-106715000D01*
X136875000Y-107915000D02*
X136175000Y-107915000D01*
%TO.C,C7*%
X155607500Y-104613000D02*
X154907500Y-104613000D01*
X154907500Y-103413000D02*
X155607500Y-103413000D01*
%TO.C,J1*%
X115256000Y-115820500D02*
X117916000Y-115820500D01*
X115256000Y-97980500D02*
X115256000Y-115820500D01*
X117916000Y-97980500D02*
X117916000Y-115820500D01*
X115256000Y-97980500D02*
X117916000Y-97980500D01*
X115256000Y-96710500D02*
X115256000Y-95380500D01*
X115256000Y-95380500D02*
X116586000Y-95380500D01*
%TO.C,J2*%
X159198000Y-95380500D02*
X160528000Y-95380500D01*
X159198000Y-96710500D02*
X159198000Y-95380500D01*
X159198000Y-97980500D02*
X161858000Y-97980500D01*
X161858000Y-97980500D02*
X161858000Y-115820500D01*
X159198000Y-97980500D02*
X159198000Y-115820500D01*
X159198000Y-115820500D02*
X161858000Y-115820500D01*
%TO.C,R1*%
X132453000Y-109963500D02*
X131453000Y-109963500D01*
X131453000Y-108603500D02*
X132453000Y-108603500D01*
%TO.C,R2*%
X143809000Y-99195000D02*
X143809000Y-100195000D01*
X142449000Y-100195000D02*
X142449000Y-99195000D01*
%TO.C,R3*%
X135961500Y-110762500D02*
X136961500Y-110762500D01*
X136961500Y-112122500D02*
X135961500Y-112122500D01*
%TO.C,R4*%
X136961500Y-109963500D02*
X135961500Y-109963500D01*
X135961500Y-108603500D02*
X136961500Y-108603500D01*
%TO.C,R5*%
X150931500Y-110535000D02*
X149931500Y-110535000D01*
X149931500Y-109175000D02*
X150931500Y-109175000D01*
%TO.C,R6*%
X149868000Y-106952500D02*
X150868000Y-106952500D01*
X150868000Y-108312500D02*
X149868000Y-108312500D01*
%TO.C,R7*%
X131580000Y-110889500D02*
X132580000Y-110889500D01*
X132580000Y-112249500D02*
X131580000Y-112249500D01*
%TO.C,R8*%
X150825000Y-106153500D02*
X149825000Y-106153500D01*
X149825000Y-104793500D02*
X150825000Y-104793500D01*
%TO.C,R9*%
X136088500Y-104603000D02*
X137088500Y-104603000D01*
X137088500Y-105963000D02*
X136088500Y-105963000D01*
%TO.C,R10*%
X155821000Y-109392000D02*
X154821000Y-109392000D01*
X154821000Y-108032000D02*
X155821000Y-108032000D01*
%TO.C,R11*%
X131580000Y-106127000D02*
X132580000Y-106127000D01*
X132580000Y-107487000D02*
X131580000Y-107487000D01*
%TO.C,R12*%
X150931500Y-112694000D02*
X149931500Y-112694000D01*
X149931500Y-111334000D02*
X150931500Y-111334000D01*
%TO.C,R13*%
X135961500Y-113175500D02*
X136961500Y-113175500D01*
X136961500Y-114535500D02*
X135961500Y-114535500D01*
%TO.C,R14*%
X155757500Y-112122500D02*
X154757500Y-112122500D01*
X154757500Y-110762500D02*
X155757500Y-110762500D01*
%TO.C,RV1*%
X126448500Y-103961000D02*
X126448500Y-104541000D01*
X126448500Y-101661000D02*
X126448500Y-102301000D01*
X126448500Y-99421000D02*
X126448500Y-100001000D01*
X121328500Y-103161000D02*
X121328500Y-104541000D01*
X121328500Y-99421000D02*
X121328500Y-100801000D01*
X121328500Y-104541000D02*
X126448500Y-104541000D01*
X121328500Y-99421000D02*
X126448500Y-99421000D01*
X124713718Y-102865938D02*
G75*
G02*
X123888500Y-103191000I-825218J884938D01*
G01*
X125047110Y-101646149D02*
G75*
G02*
X125048500Y-102311000I-1158610J-334851D01*
G01*
X123068542Y-101091636D02*
G75*
G02*
X124718500Y-101101000I819958J-889364D01*
G01*
X123909694Y-103197778D02*
G75*
G02*
X123058500Y-102871000I-21194J1216778D01*
G01*
%TO.C,RV2*%
X121455500Y-107549000D02*
X126575500Y-107549000D01*
X121455500Y-112669000D02*
X126575500Y-112669000D01*
X121455500Y-107549000D02*
X121455500Y-108929000D01*
X121455500Y-111289000D02*
X121455500Y-112669000D01*
X126575500Y-107549000D02*
X126575500Y-108129000D01*
X126575500Y-109789000D02*
X126575500Y-110429000D01*
X126575500Y-112089000D02*
X126575500Y-112669000D01*
X124036694Y-111325778D02*
G75*
G02*
X123185500Y-110999000I-21194J1216778D01*
G01*
X123195542Y-109219636D02*
G75*
G02*
X124845500Y-109229000I819958J-889364D01*
G01*
X125174110Y-109774149D02*
G75*
G02*
X125175500Y-110439000I-1158610J-334851D01*
G01*
X124840718Y-110993938D02*
G75*
G02*
X124015500Y-111319000I-825218J884938D01*
G01*
D10*
%TO.C,U1*%
X131401500Y-101706500D02*
X131401500Y-103081500D01*
X140276500Y-101706500D02*
X140276500Y-97556500D01*
X131376500Y-101706500D02*
X131376500Y-97556500D01*
X140276500Y-101706500D02*
X140161500Y-101706500D01*
X140276500Y-97556500D02*
X140161500Y-97556500D01*
X131376500Y-97556500D02*
X131491500Y-97556500D01*
X131376500Y-101706500D02*
X131401500Y-101706500D01*
%TO.C,U2*%
X141435000Y-104262000D02*
X141435000Y-104287000D01*
X145585000Y-104262000D02*
X145585000Y-104377000D01*
X145585000Y-113162000D02*
X145585000Y-113047000D01*
X141435000Y-113162000D02*
X141435000Y-113047000D01*
X141435000Y-104262000D02*
X145585000Y-104262000D01*
X141435000Y-113162000D02*
X145585000Y-113162000D01*
X141435000Y-104287000D02*
X140060000Y-104287000D01*
%TO.C,C1*%
X146645333Y-115800142D02*
X146597714Y-115847761D01*
X146454857Y-115895380D01*
X146359619Y-115895380D01*
X146216761Y-115847761D01*
X146121523Y-115752523D01*
X146073904Y-115657285D01*
X146026285Y-115466809D01*
X146026285Y-115323952D01*
X146073904Y-115133476D01*
X146121523Y-115038238D01*
X146216761Y-114943000D01*
X146359619Y-114895380D01*
X146454857Y-114895380D01*
X146597714Y-114943000D01*
X146645333Y-114990619D01*
X147597714Y-115895380D02*
X147026285Y-115895380D01*
X147312000Y-115895380D02*
X147312000Y-114895380D01*
X147216761Y-115038238D01*
X147121523Y-115133476D01*
X147026285Y-115181095D01*
%TO.C,C2*%
X128500142Y-102401666D02*
X128547761Y-102449285D01*
X128595380Y-102592142D01*
X128595380Y-102687380D01*
X128547761Y-102830238D01*
X128452523Y-102925476D01*
X128357285Y-102973095D01*
X128166809Y-103020714D01*
X128023952Y-103020714D01*
X127833476Y-102973095D01*
X127738238Y-102925476D01*
X127643000Y-102830238D01*
X127595380Y-102687380D01*
X127595380Y-102592142D01*
X127643000Y-102449285D01*
X127690619Y-102401666D01*
X127690619Y-102020714D02*
X127643000Y-101973095D01*
X127595380Y-101877857D01*
X127595380Y-101639761D01*
X127643000Y-101544523D01*
X127690619Y-101496904D01*
X127785857Y-101449285D01*
X127881095Y-101449285D01*
X128023952Y-101496904D01*
X128595380Y-102068333D01*
X128595380Y-101449285D01*
%TO.C,C3*%
X149058333Y-100814142D02*
X149010714Y-100861761D01*
X148867857Y-100909380D01*
X148772619Y-100909380D01*
X148629761Y-100861761D01*
X148534523Y-100766523D01*
X148486904Y-100671285D01*
X148439285Y-100480809D01*
X148439285Y-100337952D01*
X148486904Y-100147476D01*
X148534523Y-100052238D01*
X148629761Y-99957000D01*
X148772619Y-99909380D01*
X148867857Y-99909380D01*
X149010714Y-99957000D01*
X149058333Y-100004619D01*
X149391666Y-99909380D02*
X150010714Y-99909380D01*
X149677380Y-100290333D01*
X149820238Y-100290333D01*
X149915476Y-100337952D01*
X149963095Y-100385571D01*
X150010714Y-100480809D01*
X150010714Y-100718904D01*
X149963095Y-100814142D01*
X149915476Y-100861761D01*
X149820238Y-100909380D01*
X149534523Y-100909380D01*
X149439285Y-100861761D01*
X149391666Y-100814142D01*
%TO.C,C4*%
X130516333Y-115546142D02*
X130468714Y-115593761D01*
X130325857Y-115641380D01*
X130230619Y-115641380D01*
X130087761Y-115593761D01*
X129992523Y-115498523D01*
X129944904Y-115403285D01*
X129897285Y-115212809D01*
X129897285Y-115069952D01*
X129944904Y-114879476D01*
X129992523Y-114784238D01*
X130087761Y-114689000D01*
X130230619Y-114641380D01*
X130325857Y-114641380D01*
X130468714Y-114689000D01*
X130516333Y-114736619D01*
X131373476Y-114974714D02*
X131373476Y-115641380D01*
X131135380Y-114593761D02*
X130897285Y-115308047D01*
X131516333Y-115308047D01*
%TO.C,C5*%
X157727666Y-105695714D02*
X157689571Y-105733809D01*
X157575285Y-105771904D01*
X157499095Y-105771904D01*
X157384809Y-105733809D01*
X157308619Y-105657619D01*
X157270523Y-105581428D01*
X157232428Y-105429047D01*
X157232428Y-105314761D01*
X157270523Y-105162380D01*
X157308619Y-105086190D01*
X157384809Y-105010000D01*
X157499095Y-104971904D01*
X157575285Y-104971904D01*
X157689571Y-105010000D01*
X157727666Y-105048095D01*
X158451476Y-104971904D02*
X158070523Y-104971904D01*
X158032428Y-105352857D01*
X158070523Y-105314761D01*
X158146714Y-105276666D01*
X158337190Y-105276666D01*
X158413380Y-105314761D01*
X158451476Y-105352857D01*
X158489571Y-105429047D01*
X158489571Y-105619523D01*
X158451476Y-105695714D01*
X158413380Y-105733809D01*
X158337190Y-105771904D01*
X158146714Y-105771904D01*
X158070523Y-105733809D01*
X158032428Y-105695714D01*
%TO.C,C6*%
D12*
X139108666Y-107239571D02*
X139084857Y-107263380D01*
X139013428Y-107287190D01*
X138965809Y-107287190D01*
X138894380Y-107263380D01*
X138846761Y-107215761D01*
X138822952Y-107168142D01*
X138799142Y-107072904D01*
X138799142Y-107001476D01*
X138822952Y-106906238D01*
X138846761Y-106858619D01*
X138894380Y-106811000D01*
X138965809Y-106787190D01*
X139013428Y-106787190D01*
X139084857Y-106811000D01*
X139108666Y-106834809D01*
X139537238Y-106787190D02*
X139442000Y-106787190D01*
X139394380Y-106811000D01*
X139370571Y-106834809D01*
X139322952Y-106906238D01*
X139299142Y-107001476D01*
X139299142Y-107191952D01*
X139322952Y-107239571D01*
X139346761Y-107263380D01*
X139394380Y-107287190D01*
X139489619Y-107287190D01*
X139537238Y-107263380D01*
X139561047Y-107239571D01*
X139584857Y-107191952D01*
X139584857Y-107072904D01*
X139561047Y-107025285D01*
X139537238Y-107001476D01*
X139489619Y-106977666D01*
X139394380Y-106977666D01*
X139346761Y-107001476D01*
X139322952Y-107025285D01*
X139299142Y-107072904D01*
%TO.C,C7*%
D10*
X157600666Y-103028714D02*
X157562571Y-103066809D01*
X157448285Y-103104904D01*
X157372095Y-103104904D01*
X157257809Y-103066809D01*
X157181619Y-102990619D01*
X157143523Y-102914428D01*
X157105428Y-102762047D01*
X157105428Y-102647761D01*
X157143523Y-102495380D01*
X157181619Y-102419190D01*
X157257809Y-102343000D01*
X157372095Y-102304904D01*
X157448285Y-102304904D01*
X157562571Y-102343000D01*
X157600666Y-102381095D01*
X157867333Y-102304904D02*
X158400666Y-102304904D01*
X158057809Y-103104904D01*
%TO.C,R1*%
X129025666Y-109835904D02*
X128759000Y-109454952D01*
X128568523Y-109835904D02*
X128568523Y-109035904D01*
X128873285Y-109035904D01*
X128949476Y-109074000D01*
X128987571Y-109112095D01*
X129025666Y-109188285D01*
X129025666Y-109302571D01*
X128987571Y-109378761D01*
X128949476Y-109416857D01*
X128873285Y-109454952D01*
X128568523Y-109454952D01*
X129787571Y-109835904D02*
X129330428Y-109835904D01*
X129559000Y-109835904D02*
X129559000Y-109035904D01*
X129482809Y-109150190D01*
X129406619Y-109226380D01*
X129330428Y-109264476D01*
%TO.C,R2*%
X145359380Y-99480666D02*
X144883190Y-99814000D01*
X145359380Y-100052095D02*
X144359380Y-100052095D01*
X144359380Y-99671142D01*
X144407000Y-99575904D01*
X144454619Y-99528285D01*
X144549857Y-99480666D01*
X144692714Y-99480666D01*
X144787952Y-99528285D01*
X144835571Y-99575904D01*
X144883190Y-99671142D01*
X144883190Y-100052095D01*
X144454619Y-99099714D02*
X144407000Y-99052095D01*
X144359380Y-98956857D01*
X144359380Y-98718761D01*
X144407000Y-98623523D01*
X144454619Y-98575904D01*
X144549857Y-98528285D01*
X144645095Y-98528285D01*
X144787952Y-98575904D01*
X145359380Y-99147333D01*
X145359380Y-98528285D01*
%TO.C,R3*%
D12*
X138981666Y-111097190D02*
X138815000Y-110859095D01*
X138695952Y-111097190D02*
X138695952Y-110597190D01*
X138886428Y-110597190D01*
X138934047Y-110621000D01*
X138957857Y-110644809D01*
X138981666Y-110692428D01*
X138981666Y-110763857D01*
X138957857Y-110811476D01*
X138934047Y-110835285D01*
X138886428Y-110859095D01*
X138695952Y-110859095D01*
X139148333Y-110597190D02*
X139457857Y-110597190D01*
X139291190Y-110787666D01*
X139362619Y-110787666D01*
X139410238Y-110811476D01*
X139434047Y-110835285D01*
X139457857Y-110882904D01*
X139457857Y-111001952D01*
X139434047Y-111049571D01*
X139410238Y-111073380D01*
X139362619Y-111097190D01*
X139219761Y-111097190D01*
X139172142Y-111073380D01*
X139148333Y-111049571D01*
%TO.C,R4*%
X138981666Y-109573190D02*
X138815000Y-109335095D01*
X138695952Y-109573190D02*
X138695952Y-109073190D01*
X138886428Y-109073190D01*
X138934047Y-109097000D01*
X138957857Y-109120809D01*
X138981666Y-109168428D01*
X138981666Y-109239857D01*
X138957857Y-109287476D01*
X138934047Y-109311285D01*
X138886428Y-109335095D01*
X138695952Y-109335095D01*
X139410238Y-109239857D02*
X139410238Y-109573190D01*
X139291190Y-109049380D02*
X139172142Y-109406523D01*
X139481666Y-109406523D01*
%TO.C,R5*%
D10*
X150328333Y-114117380D02*
X149995000Y-113641190D01*
X149756904Y-114117380D02*
X149756904Y-113117380D01*
X150137857Y-113117380D01*
X150233095Y-113165000D01*
X150280714Y-113212619D01*
X150328333Y-113307857D01*
X150328333Y-113450714D01*
X150280714Y-113545952D01*
X150233095Y-113593571D01*
X150137857Y-113641190D01*
X149756904Y-113641190D01*
X151233095Y-113117380D02*
X150756904Y-113117380D01*
X150709285Y-113593571D01*
X150756904Y-113545952D01*
X150852142Y-113498333D01*
X151090238Y-113498333D01*
X151185476Y-113545952D01*
X151233095Y-113593571D01*
X151280714Y-113688809D01*
X151280714Y-113926904D01*
X151233095Y-114022142D01*
X151185476Y-114069761D01*
X151090238Y-114117380D01*
X150852142Y-114117380D01*
X150756904Y-114069761D01*
X150709285Y-114022142D01*
%TO.C,R6*%
D12*
X147744666Y-107922190D02*
X147578000Y-107684095D01*
X147458952Y-107922190D02*
X147458952Y-107422190D01*
X147649428Y-107422190D01*
X147697047Y-107446000D01*
X147720857Y-107469809D01*
X147744666Y-107517428D01*
X147744666Y-107588857D01*
X147720857Y-107636476D01*
X147697047Y-107660285D01*
X147649428Y-107684095D01*
X147458952Y-107684095D01*
X148173238Y-107422190D02*
X148078000Y-107422190D01*
X148030380Y-107446000D01*
X148006571Y-107469809D01*
X147958952Y-107541238D01*
X147935142Y-107636476D01*
X147935142Y-107826952D01*
X147958952Y-107874571D01*
X147982761Y-107898380D01*
X148030380Y-107922190D01*
X148125619Y-107922190D01*
X148173238Y-107898380D01*
X148197047Y-107874571D01*
X148220857Y-107826952D01*
X148220857Y-107707904D01*
X148197047Y-107660285D01*
X148173238Y-107636476D01*
X148125619Y-107612666D01*
X148030380Y-107612666D01*
X147982761Y-107636476D01*
X147958952Y-107660285D01*
X147935142Y-107707904D01*
%TO.C,R7*%
D10*
X129025666Y-112375904D02*
X128759000Y-111994952D01*
X128568523Y-112375904D02*
X128568523Y-111575904D01*
X128873285Y-111575904D01*
X128949476Y-111614000D01*
X128987571Y-111652095D01*
X129025666Y-111728285D01*
X129025666Y-111842571D01*
X128987571Y-111918761D01*
X128949476Y-111956857D01*
X128873285Y-111994952D01*
X128568523Y-111994952D01*
X129292333Y-111575904D02*
X129825666Y-111575904D01*
X129482809Y-112375904D01*
%TO.C,R8*%
X148931333Y-102433380D02*
X148598000Y-101957190D01*
X148359904Y-102433380D02*
X148359904Y-101433380D01*
X148740857Y-101433380D01*
X148836095Y-101481000D01*
X148883714Y-101528619D01*
X148931333Y-101623857D01*
X148931333Y-101766714D01*
X148883714Y-101861952D01*
X148836095Y-101909571D01*
X148740857Y-101957190D01*
X148359904Y-101957190D01*
X149502761Y-101861952D02*
X149407523Y-101814333D01*
X149359904Y-101766714D01*
X149312285Y-101671476D01*
X149312285Y-101623857D01*
X149359904Y-101528619D01*
X149407523Y-101481000D01*
X149502761Y-101433380D01*
X149693238Y-101433380D01*
X149788476Y-101481000D01*
X149836095Y-101528619D01*
X149883714Y-101623857D01*
X149883714Y-101671476D01*
X149836095Y-101766714D01*
X149788476Y-101814333D01*
X149693238Y-101861952D01*
X149502761Y-101861952D01*
X149407523Y-101909571D01*
X149359904Y-101957190D01*
X149312285Y-102052428D01*
X149312285Y-102242904D01*
X149359904Y-102338142D01*
X149407523Y-102385761D01*
X149502761Y-102433380D01*
X149693238Y-102433380D01*
X149788476Y-102385761D01*
X149836095Y-102338142D01*
X149883714Y-102242904D01*
X149883714Y-102052428D01*
X149836095Y-101957190D01*
X149788476Y-101909571D01*
X149693238Y-101861952D01*
%TO.C,R9*%
D12*
X136505166Y-104059190D02*
X136338500Y-103821095D01*
X136219452Y-104059190D02*
X136219452Y-103559190D01*
X136409928Y-103559190D01*
X136457547Y-103583000D01*
X136481357Y-103606809D01*
X136505166Y-103654428D01*
X136505166Y-103725857D01*
X136481357Y-103773476D01*
X136457547Y-103797285D01*
X136409928Y-103821095D01*
X136219452Y-103821095D01*
X136743261Y-104059190D02*
X136838500Y-104059190D01*
X136886119Y-104035380D01*
X136909928Y-104011571D01*
X136957547Y-103940142D01*
X136981357Y-103844904D01*
X136981357Y-103654428D01*
X136957547Y-103606809D01*
X136933738Y-103583000D01*
X136886119Y-103559190D01*
X136790880Y-103559190D01*
X136743261Y-103583000D01*
X136719452Y-103606809D01*
X136695642Y-103654428D01*
X136695642Y-103773476D01*
X136719452Y-103821095D01*
X136743261Y-103844904D01*
X136790880Y-103868714D01*
X136886119Y-103868714D01*
X136933738Y-103844904D01*
X136957547Y-103821095D01*
X136981357Y-103773476D01*
%TO.C,R10*%
D10*
X155694142Y-113736380D02*
X155360809Y-113260190D01*
X155122714Y-113736380D02*
X155122714Y-112736380D01*
X155503666Y-112736380D01*
X155598904Y-112784000D01*
X155646523Y-112831619D01*
X155694142Y-112926857D01*
X155694142Y-113069714D01*
X155646523Y-113164952D01*
X155598904Y-113212571D01*
X155503666Y-113260190D01*
X155122714Y-113260190D01*
X156646523Y-113736380D02*
X156075095Y-113736380D01*
X156360809Y-113736380D02*
X156360809Y-112736380D01*
X156265571Y-112879238D01*
X156170333Y-112974476D01*
X156075095Y-113022095D01*
X157265571Y-112736380D02*
X157360809Y-112736380D01*
X157456047Y-112784000D01*
X157503666Y-112831619D01*
X157551285Y-112926857D01*
X157598904Y-113117333D01*
X157598904Y-113355428D01*
X157551285Y-113545904D01*
X157503666Y-113641142D01*
X157456047Y-113688761D01*
X157360809Y-113736380D01*
X157265571Y-113736380D01*
X157170333Y-113688761D01*
X157122714Y-113641142D01*
X157075095Y-113545904D01*
X157027476Y-113355428D01*
X157027476Y-113117333D01*
X157075095Y-112926857D01*
X157122714Y-112831619D01*
X157170333Y-112784000D01*
X157265571Y-112736380D01*
%TO.C,R11*%
X129786142Y-105608380D02*
X129452809Y-105132190D01*
X129214714Y-105608380D02*
X129214714Y-104608380D01*
X129595666Y-104608380D01*
X129690904Y-104656000D01*
X129738523Y-104703619D01*
X129786142Y-104798857D01*
X129786142Y-104941714D01*
X129738523Y-105036952D01*
X129690904Y-105084571D01*
X129595666Y-105132190D01*
X129214714Y-105132190D01*
X130738523Y-105608380D02*
X130167095Y-105608380D01*
X130452809Y-105608380D02*
X130452809Y-104608380D01*
X130357571Y-104751238D01*
X130262333Y-104846476D01*
X130167095Y-104894095D01*
X131690904Y-105608380D02*
X131119476Y-105608380D01*
X131405190Y-105608380D02*
X131405190Y-104608380D01*
X131309952Y-104751238D01*
X131214714Y-104846476D01*
X131119476Y-104894095D01*
%TO.C,R12*%
X149852142Y-115641380D02*
X149518809Y-115165190D01*
X149280714Y-115641380D02*
X149280714Y-114641380D01*
X149661666Y-114641380D01*
X149756904Y-114689000D01*
X149804523Y-114736619D01*
X149852142Y-114831857D01*
X149852142Y-114974714D01*
X149804523Y-115069952D01*
X149756904Y-115117571D01*
X149661666Y-115165190D01*
X149280714Y-115165190D01*
X150804523Y-115641380D02*
X150233095Y-115641380D01*
X150518809Y-115641380D02*
X150518809Y-114641380D01*
X150423571Y-114784238D01*
X150328333Y-114879476D01*
X150233095Y-114927095D01*
X151185476Y-114736619D02*
X151233095Y-114689000D01*
X151328333Y-114641380D01*
X151566428Y-114641380D01*
X151661666Y-114689000D01*
X151709285Y-114736619D01*
X151756904Y-114831857D01*
X151756904Y-114927095D01*
X151709285Y-115069952D01*
X151137857Y-115641380D01*
X151756904Y-115641380D01*
%TO.C,R13*%
X135818642Y-115757880D02*
X135485309Y-115281690D01*
X135247214Y-115757880D02*
X135247214Y-114757880D01*
X135628166Y-114757880D01*
X135723404Y-114805500D01*
X135771023Y-114853119D01*
X135818642Y-114948357D01*
X135818642Y-115091214D01*
X135771023Y-115186452D01*
X135723404Y-115234071D01*
X135628166Y-115281690D01*
X135247214Y-115281690D01*
X136771023Y-115757880D02*
X136199595Y-115757880D01*
X136485309Y-115757880D02*
X136485309Y-114757880D01*
X136390071Y-114900738D01*
X136294833Y-114995976D01*
X136199595Y-115043595D01*
X137104357Y-114757880D02*
X137723404Y-114757880D01*
X137390071Y-115138833D01*
X137532928Y-115138833D01*
X137628166Y-115186452D01*
X137675785Y-115234071D01*
X137723404Y-115329309D01*
X137723404Y-115567404D01*
X137675785Y-115662642D01*
X137628166Y-115710261D01*
X137532928Y-115757880D01*
X137247214Y-115757880D01*
X137151976Y-115710261D01*
X137104357Y-115662642D01*
%TO.C,R14*%
X155567142Y-115641380D02*
X155233809Y-115165190D01*
X154995714Y-115641380D02*
X154995714Y-114641380D01*
X155376666Y-114641380D01*
X155471904Y-114689000D01*
X155519523Y-114736619D01*
X155567142Y-114831857D01*
X155567142Y-114974714D01*
X155519523Y-115069952D01*
X155471904Y-115117571D01*
X155376666Y-115165190D01*
X154995714Y-115165190D01*
X156519523Y-115641380D02*
X155948095Y-115641380D01*
X156233809Y-115641380D02*
X156233809Y-114641380D01*
X156138571Y-114784238D01*
X156043333Y-114879476D01*
X155948095Y-114927095D01*
X157376666Y-114974714D02*
X157376666Y-115641380D01*
X157138571Y-114593761D02*
X156900476Y-115308047D01*
X157519523Y-115308047D01*
%TO.C,RV1*%
X120086380Y-102576238D02*
X119610190Y-102909571D01*
X120086380Y-103147666D02*
X119086380Y-103147666D01*
X119086380Y-102766714D01*
X119134000Y-102671476D01*
X119181619Y-102623857D01*
X119276857Y-102576238D01*
X119419714Y-102576238D01*
X119514952Y-102623857D01*
X119562571Y-102671476D01*
X119610190Y-102766714D01*
X119610190Y-103147666D01*
X119086380Y-102290523D02*
X120086380Y-101957190D01*
X119086380Y-101623857D01*
X120086380Y-100766714D02*
X120086380Y-101338142D01*
X120086380Y-101052428D02*
X119086380Y-101052428D01*
X119229238Y-101147666D01*
X119324476Y-101242904D01*
X119372095Y-101338142D01*
%TO.C,RV2*%
X120213380Y-110450238D02*
X119737190Y-110783571D01*
X120213380Y-111021666D02*
X119213380Y-111021666D01*
X119213380Y-110640714D01*
X119261000Y-110545476D01*
X119308619Y-110497857D01*
X119403857Y-110450238D01*
X119546714Y-110450238D01*
X119641952Y-110497857D01*
X119689571Y-110545476D01*
X119737190Y-110640714D01*
X119737190Y-111021666D01*
X119213380Y-110164523D02*
X120213380Y-109831190D01*
X119213380Y-109497857D01*
X119308619Y-109212142D02*
X119261000Y-109164523D01*
X119213380Y-109069285D01*
X119213380Y-108831190D01*
X119261000Y-108735952D01*
X119308619Y-108688333D01*
X119403857Y-108640714D01*
X119499095Y-108640714D01*
X119641952Y-108688333D01*
X120213380Y-109259761D01*
X120213380Y-108640714D01*
%TO.C,U1*%
X129032095Y-94829380D02*
X129032095Y-95638904D01*
X129079714Y-95734142D01*
X129127333Y-95781761D01*
X129222571Y-95829380D01*
X129413047Y-95829380D01*
X129508285Y-95781761D01*
X129555904Y-95734142D01*
X129603523Y-95638904D01*
X129603523Y-94829380D01*
X130603523Y-95829380D02*
X130032095Y-95829380D01*
X130317809Y-95829380D02*
X130317809Y-94829380D01*
X130222571Y-94972238D01*
X130127333Y-95067476D01*
X130032095Y-95115095D01*
%TO.C,U2*%
X141732095Y-102576380D02*
X141732095Y-103385904D01*
X141779714Y-103481142D01*
X141827333Y-103528761D01*
X141922571Y-103576380D01*
X142113047Y-103576380D01*
X142208285Y-103528761D01*
X142255904Y-103481142D01*
X142303523Y-103385904D01*
X142303523Y-102576380D01*
X142732095Y-102671619D02*
X142779714Y-102624000D01*
X142874952Y-102576380D01*
X143113047Y-102576380D01*
X143208285Y-102624000D01*
X143255904Y-102671619D01*
X143303523Y-102766857D01*
X143303523Y-102862095D01*
X143255904Y-103004952D01*
X142684476Y-103576380D01*
X143303523Y-103576380D01*
%TD*%
M02*
