%TF.GenerationSoftware,KiCad,Pcbnew,(5.1.10)-1*%
%TF.CreationDate,2023-08-21T21:32:28-05:00*%
%TF.ProjectId,auxFilter,61757846-696c-4746-9572-2e6b69636164,rev?*%
%TF.SameCoordinates,Original*%
%TF.FileFunction,Copper,L2,Bot*%
%TF.FilePolarity,Positive*%
%FSLAX46Y46*%
G04 Gerber Fmt 4.6, Leading zero omitted, Abs format (unit mm)*
G04 Created by KiCad (PCBNEW (5.1.10)-1) date 2023-08-21 21:32:28*
%MOMM*%
%LPD*%
G01*
G04 APERTURE LIST*
%TA.AperFunction,ComponentPad*%
%ADD10O,1.700000X1.700000*%
%TD*%
%TA.AperFunction,ComponentPad*%
%ADD11R,1.700000X1.700000*%
%TD*%
%TA.AperFunction,ViaPad*%
%ADD12C,0.900000*%
%TD*%
%TA.AperFunction,Conductor*%
%ADD13C,0.350000*%
%TD*%
%TA.AperFunction,Conductor*%
%ADD14C,0.254000*%
%TD*%
%TA.AperFunction,Conductor*%
%ADD15C,0.100000*%
%TD*%
G04 APERTURE END LIST*
D10*
%TO.P,J1,8*%
%TO.N,GND*%
X116586000Y-114490500D03*
%TO.P,J1,7*%
%TO.N,/VR*%
X116586000Y-111950500D03*
%TO.P,J1,6*%
%TO.N,+5V*%
X116586000Y-109410500D03*
%TO.P,J1,5*%
%TO.N,/SPACE_INPUT*%
X116586000Y-106870500D03*
%TO.P,J1,4*%
%TO.N,/MARK_INPUT*%
X116586000Y-104330500D03*
%TO.P,J1,3*%
%TO.N,/VHF*%
X116586000Y-101790500D03*
%TO.P,J1,2*%
%TO.N,/HF*%
X116586000Y-99250500D03*
D11*
%TO.P,J1,1*%
%TO.N,GND*%
X116586000Y-96710500D03*
%TD*%
%TO.P,J2,1*%
%TO.N,GND*%
X160528000Y-96710500D03*
D10*
%TO.P,J2,2*%
%TO.N,/HF*%
X160528000Y-99250500D03*
%TO.P,J2,3*%
%TO.N,/VHF*%
X160528000Y-101790500D03*
%TO.P,J2,4*%
%TO.N,/MARK_OUT*%
X160528000Y-104330500D03*
%TO.P,J2,5*%
%TO.N,/SPACE_OUT*%
X160528000Y-106870500D03*
%TO.P,J2,6*%
%TO.N,+5V*%
X160528000Y-109410500D03*
%TO.P,J2,7*%
%TO.N,/VR*%
X160528000Y-111950500D03*
%TO.P,J2,8*%
%TO.N,GND*%
X160528000Y-114490500D03*
%TD*%
D12*
%TO.N,+5V*%
X128696800Y-97967800D03*
X159131000Y-103251000D03*
%TO.N,GND*%
X147701000Y-101727000D03*
X143129000Y-104267000D03*
X133261100Y-100291900D03*
X129413000Y-113030000D03*
X121539000Y-107823000D03*
X125730000Y-96901000D03*
X157734000Y-111887000D03*
X147701000Y-108839000D03*
X144437100Y-107911900D03*
X151511000Y-100965000D03*
X145796000Y-101981000D03*
X156210000Y-98298000D03*
X149733000Y-95885000D03*
X127635000Y-94869000D03*
X157734000Y-94996000D03*
X118364000Y-110998000D03*
X118364000Y-108966000D03*
X123063000Y-105283000D03*
X158242000Y-108712000D03*
X127889000Y-104140000D03*
X127635000Y-106172000D03*
X118110000Y-103124000D03*
X118237000Y-100457000D03*
X124079000Y-110109000D03*
X123190000Y-113792000D03*
%TO.N,/VR*%
X133997700Y-105181400D03*
X150736300Y-102082600D03*
X146005550Y-97199450D03*
%TO.N,Net-(C4-Pad2)*%
X132207000Y-103974900D03*
X129184400Y-104000300D03*
X129070100Y-106222800D03*
X140322300Y-104000300D03*
%TO.N,Net-(C4-Pad1)*%
X132346700Y-114363500D03*
X142989300Y-113804700D03*
%TO.N,Net-(C5-Pad1)*%
X144894300Y-106032300D03*
X152107900Y-102146100D03*
X155333700Y-107530900D03*
X156260800Y-101663500D03*
%TO.N,Net-(C5-Pad2)*%
X147726400Y-106692700D03*
X144805400Y-109016800D03*
X151396700Y-104521000D03*
X140843000Y-99568000D03*
%TO.N,Net-(C6-Pad1)*%
X139014200Y-107911900D03*
X134835900Y-103974900D03*
%TO.N,Net-(C7-Pad1)*%
X155917900Y-102717600D03*
X149331500Y-108834100D03*
X137160000Y-98348800D03*
%TO.N,/SPACE_INPUT*%
X144449800Y-100799900D03*
X152946100Y-107518200D03*
X130568700Y-102171500D03*
X120396000Y-106768900D03*
X141376400Y-101295200D03*
%TO.N,/MARK_INPUT*%
X133057900Y-108254800D03*
X120789700Y-104927400D03*
X127762000Y-107569000D03*
%TO.N,/VHF*%
X137058400Y-101142800D03*
X127469900Y-97040700D03*
X134620000Y-99352100D03*
%TO.N,/HF*%
X138417300Y-101180900D03*
X133286500Y-98640900D03*
X129463800Y-96837500D03*
%TO.N,/MARK_OUT*%
X139141200Y-113855500D03*
X129235200Y-110871000D03*
%TO.N,/SPACE_OUT*%
X154266900Y-112953800D03*
X147142200Y-104622600D03*
X143154400Y-106070400D03*
X143891000Y-113004600D03*
%TO.N,Net-(R1-Pad1)*%
X130594100Y-108153200D03*
X135572500Y-101231700D03*
%TO.N,Net-(R5-Pad1)*%
X152946100Y-109855000D03*
X127635000Y-108839000D03*
%TO.N,Net-(R11-Pad2)*%
X137045700Y-104686100D03*
X132613400Y-105575100D03*
%TO.N,Net-(RV2-Pad3)*%
X127812800Y-112687100D03*
X141097000Y-97790000D03*
%TD*%
D13*
%TO.N,+5V*%
X154190700Y-97536000D02*
X158419800Y-101765100D01*
X148145500Y-97536000D02*
X154190700Y-97536000D01*
X129590800Y-97967800D02*
X131254500Y-96304100D01*
X128696800Y-97967800D02*
X129590800Y-97967800D01*
X139414250Y-96297750D02*
X139407900Y-96304100D01*
X146907250Y-96297750D02*
X139414250Y-96297750D01*
X131254500Y-96304100D02*
X139407900Y-96304100D01*
X146907250Y-96297750D02*
X148145500Y-97536000D01*
X158419800Y-102539800D02*
X158419800Y-101765100D01*
X159131000Y-103251000D02*
X158419800Y-102539800D01*
%TO.N,/VR*%
X149745700Y-103073200D02*
X150736300Y-102082600D01*
X134023100Y-103073200D02*
X149745700Y-103073200D01*
X133451600Y-103644700D02*
X134023100Y-103073200D01*
X133451600Y-104635300D02*
X133451600Y-103644700D01*
X133997700Y-105181400D02*
X133451600Y-104635300D01*
X124028200Y-111950500D02*
X116586000Y-111950500D01*
X125628400Y-100685600D02*
X125628400Y-110350300D01*
X127381000Y-98933000D02*
X125628400Y-100685600D01*
X131038600Y-97434400D02*
X129540000Y-98933000D01*
X125628400Y-110350300D02*
X124028200Y-111950500D01*
X129540000Y-98933000D02*
X127381000Y-98933000D01*
X131457700Y-97434400D02*
X131038600Y-97434400D01*
X131991100Y-96901000D02*
X131457700Y-97434400D01*
X145707100Y-96901000D02*
X131991100Y-96901000D01*
X146005550Y-97199450D02*
X145707100Y-96901000D01*
%TO.N,Net-(C4-Pad2)*%
X140208000Y-108381800D02*
X139560300Y-109029500D01*
X131457700Y-104724200D02*
X132207000Y-103974900D01*
X129070100Y-104114600D02*
X129070100Y-106222800D01*
X129184400Y-104000300D02*
X129070100Y-104114600D01*
X139560300Y-109029500D02*
X138252200Y-109029500D01*
X138252200Y-109029500D02*
X138252200Y-108927900D01*
X138252200Y-108927900D02*
X136410700Y-107086400D01*
X132486400Y-107086400D02*
X131457700Y-106057700D01*
X136410700Y-107086400D02*
X132486400Y-107086400D01*
X131457700Y-106057700D02*
X131457700Y-104724200D01*
X140208000Y-104114600D02*
X140322300Y-104000300D01*
X140208000Y-108381800D02*
X140208000Y-104114600D01*
%TO.N,Net-(C4-Pad1)*%
X140576300Y-114122200D02*
X139915900Y-114782600D01*
X132765800Y-114782600D02*
X132346700Y-114363500D01*
X139915900Y-114782600D02*
X132765800Y-114782600D01*
X142671800Y-114122200D02*
X140576300Y-114122200D01*
X142989300Y-113804700D02*
X142671800Y-114122200D01*
%TO.N,Net-(C5-Pad1)*%
X155333700Y-107530900D02*
X155333700Y-104495600D01*
X155333700Y-104495600D02*
X156883100Y-102946200D01*
X156883100Y-102946200D02*
X156883100Y-102285800D01*
X156883100Y-102285800D02*
X156260800Y-101663500D01*
X150469600Y-103784400D02*
X152107900Y-102146100D01*
X145694400Y-103784400D02*
X150469600Y-103784400D01*
X144894300Y-104584500D02*
X145694400Y-103784400D01*
X144894300Y-106032300D02*
X144894300Y-104584500D01*
%TO.N,Net-(C5-Pad2)*%
X147726400Y-106692700D02*
X147485100Y-106692700D01*
X147129500Y-106692700D02*
X144805400Y-109016800D01*
X147726400Y-106692700D02*
X147129500Y-106692700D01*
X142938500Y-101231700D02*
X143535400Y-101231700D01*
X143535400Y-101231700D02*
X143929100Y-101625400D01*
X151396700Y-104241600D02*
X151396700Y-104521000D01*
X143929100Y-101625400D02*
X144957800Y-101625400D01*
X144957800Y-101625400D02*
X146342100Y-100241100D01*
X146342100Y-100241100D02*
X146342100Y-100164900D01*
X146342100Y-100164900D02*
X146558000Y-99949000D01*
X146558000Y-99949000D02*
X152908000Y-99949000D01*
X153670000Y-100711000D02*
X153670000Y-101981000D01*
X152946100Y-102692200D02*
X151396700Y-104241600D01*
X152908000Y-99949000D02*
X153670000Y-100711000D01*
X152958800Y-102692200D02*
X152946100Y-102692200D01*
X153670000Y-101981000D02*
X152958800Y-102692200D01*
X142506700Y-101231700D02*
X140843000Y-99568000D01*
X142938500Y-101231700D02*
X142506700Y-101231700D01*
%TO.N,Net-(C6-Pad1)*%
X139014200Y-107911900D02*
X138950700Y-107848400D01*
X138950700Y-107848400D02*
X138950700Y-104406700D01*
X138950700Y-104406700D02*
X138252200Y-103708200D01*
X135102600Y-103708200D02*
X134835900Y-103974900D01*
X138252200Y-103708200D02*
X135102600Y-103708200D01*
%TO.N,Net-(C7-Pad1)*%
X155917900Y-102717600D02*
X154686000Y-103949500D01*
X153446300Y-108834100D02*
X149331500Y-108834100D01*
X154686000Y-103949500D02*
X154673300Y-103949500D01*
X153904950Y-104717850D02*
X153904950Y-108375450D01*
X154673300Y-103949500D02*
X153904950Y-104717850D01*
X153904950Y-108375450D02*
X153446300Y-108834100D01*
X137210800Y-98348800D02*
X137160000Y-98348800D01*
X138379200Y-99568000D02*
X137160000Y-98348800D01*
X139573000Y-99568000D02*
X138379200Y-99568000D01*
X140474700Y-98666300D02*
X139573000Y-99568000D01*
X154165300Y-98666300D02*
X140474700Y-98666300D01*
X155321000Y-101981000D02*
X155321000Y-99822000D01*
X155321000Y-99822000D02*
X154165300Y-98666300D01*
X155917900Y-102577900D02*
X155321000Y-101981000D01*
X155917900Y-102717600D02*
X155917900Y-102577900D01*
%TO.N,/SPACE_INPUT*%
X116687600Y-106768900D02*
X116586000Y-106870500D01*
X120396000Y-106768900D02*
X116687600Y-106768900D01*
X140652500Y-102323900D02*
X141376400Y-101600000D01*
X130721100Y-102323900D02*
X140652500Y-102323900D01*
X141376400Y-101600000D02*
X141376400Y-101295200D01*
X130568700Y-102171500D02*
X130721100Y-102323900D01*
X152361900Y-104305100D02*
X152361900Y-106641900D01*
X154559000Y-102108000D02*
X152361900Y-104305100D01*
X154559000Y-100330000D02*
X154559000Y-102108000D01*
X152361900Y-106641900D02*
X152946100Y-107226100D01*
X146020690Y-99216310D02*
X153445310Y-99216310D01*
X145681700Y-99555300D02*
X146020690Y-99216310D01*
X145669000Y-99555300D02*
X145681700Y-99555300D01*
X152946100Y-107226100D02*
X152946100Y-107518200D01*
X153445310Y-99216310D02*
X154559000Y-100330000D01*
X144449800Y-100774500D02*
X145669000Y-99555300D01*
X144449800Y-100799900D02*
X144449800Y-100774500D01*
%TO.N,/MARK_INPUT*%
X120192800Y-104330500D02*
X116586000Y-104330500D01*
X120789700Y-104927400D02*
X120192800Y-104330500D01*
X132257800Y-109054900D02*
X133057900Y-108254800D01*
X129501900Y-109054900D02*
X132257800Y-109054900D01*
X128016000Y-107569000D02*
X129501900Y-109054900D01*
X127762000Y-107569000D02*
X128016000Y-107569000D01*
%TO.N,/VHF*%
X118935500Y-101790500D02*
X116586000Y-101790500D01*
X119875300Y-100850700D02*
X118935500Y-101790500D01*
X134620000Y-99352100D02*
X135204200Y-99936300D01*
X135851900Y-99936300D02*
X137058400Y-101142800D01*
X135204200Y-99936300D02*
X135851900Y-99936300D01*
X123659900Y-100850700D02*
X127469900Y-97040700D01*
X119875300Y-100850700D02*
X123659900Y-100850700D01*
%TO.N,/HF*%
X138417300Y-101180900D02*
X135636000Y-98399600D01*
X117919500Y-99250500D02*
X116586000Y-99250500D01*
X121437400Y-95732600D02*
X117919500Y-99250500D01*
X128358900Y-95732600D02*
X121437400Y-95732600D01*
X129463800Y-96837500D02*
X128358900Y-95732600D01*
X133286500Y-98640900D02*
X133921500Y-98640900D01*
X134162800Y-98399600D02*
X135636000Y-98399600D01*
X133921500Y-98640900D02*
X134162800Y-98399600D01*
X160528000Y-99250500D02*
X158686500Y-99250500D01*
X158686500Y-99250500D02*
X156337000Y-96901000D01*
X156337000Y-96901000D02*
X148844000Y-96901000D01*
X148844000Y-96901000D02*
X147690740Y-95747740D01*
X130553560Y-95747740D02*
X129463800Y-96837500D01*
X147690740Y-95747740D02*
X130553560Y-95747740D01*
%TO.N,/MARK_OUT*%
X160528000Y-104330500D02*
X156527500Y-104330500D01*
X155790900Y-108839000D02*
X153543000Y-111086900D01*
X153543000Y-111086900D02*
X139738100Y-111086900D01*
X139141200Y-111683800D02*
X139141200Y-113855500D01*
X139738100Y-111086900D02*
X139141200Y-111683800D01*
X139141200Y-111683800D02*
X138544300Y-111086900D01*
X138328400Y-110871000D02*
X129235200Y-110871000D01*
X138544300Y-111086900D02*
X138328400Y-110871000D01*
X155790900Y-108839000D02*
X155790900Y-108826300D01*
X156317950Y-108299250D02*
X156317950Y-104540050D01*
X155790900Y-108826300D02*
X156317950Y-108299250D01*
X156527500Y-104330500D02*
X156317950Y-104540050D01*
%TO.N,/SPACE_OUT*%
X154266900Y-112953800D02*
X157035500Y-110185200D01*
X157035500Y-110185200D02*
X157035500Y-107632500D01*
X157797500Y-106870500D02*
X160528000Y-106870500D01*
X157035500Y-107632500D02*
X157797500Y-106870500D01*
X147142200Y-104622600D02*
X146240500Y-105524300D01*
X146240500Y-105524300D02*
X146240500Y-105918000D01*
X146240500Y-105918000D02*
X146240500Y-106083100D01*
X146240500Y-106083100D02*
X145326100Y-106997500D01*
X144081500Y-106997500D02*
X143154400Y-106070400D01*
X145326100Y-106997500D02*
X144081500Y-106997500D01*
X143891000Y-113004600D02*
X144208500Y-113322100D01*
X153898600Y-113322100D02*
X154266900Y-112953800D01*
X144208500Y-113322100D02*
X153898600Y-113322100D01*
%TO.N,Net-(R1-Pad1)*%
X131762500Y-101231700D02*
X135572500Y-101231700D01*
X129628900Y-101231700D02*
X131762500Y-101231700D01*
X129286000Y-101574600D02*
X129628900Y-101231700D01*
X129286000Y-102552500D02*
X129286000Y-101574600D01*
X130556000Y-103822500D02*
X129286000Y-102552500D01*
X130556000Y-108115100D02*
X130556000Y-103822500D01*
X130594100Y-108153200D02*
X130556000Y-108115100D01*
%TO.N,Net-(R5-Pad1)*%
X152946100Y-109855000D02*
X128562100Y-109855000D01*
X128562100Y-109855000D02*
X128003300Y-109296200D01*
X128003300Y-109207300D02*
X127635000Y-108839000D01*
X128003300Y-109296200D02*
X128003300Y-109207300D01*
%TO.N,Net-(R11-Pad2)*%
X137045700Y-104686100D02*
X135394700Y-106337100D01*
X133375400Y-106337100D02*
X132613400Y-105575100D01*
X135394700Y-106337100D02*
X133375400Y-106337100D01*
%TO.N,Net-(RV2-Pad3)*%
X127812800Y-110858300D02*
X127812800Y-112687100D01*
X126771400Y-100431600D02*
X126771400Y-109816900D01*
X127635000Y-99568000D02*
X126771400Y-100431600D01*
X131381500Y-98234500D02*
X130048000Y-99568000D01*
X132130800Y-98234500D02*
X131381500Y-98234500D01*
X132734050Y-97631250D02*
X132130800Y-98234500D01*
X136467850Y-97631250D02*
X132734050Y-97631250D01*
X136626600Y-97472500D02*
X136467850Y-97631250D01*
X126771400Y-109816900D02*
X127812800Y-110858300D01*
X130048000Y-99568000D02*
X127635000Y-99568000D01*
X140779500Y-97472500D02*
X136626600Y-97472500D01*
X141097000Y-97790000D02*
X140779500Y-97472500D01*
%TD*%
D14*
%TO.N,GND*%
X163551000Y-116180000D02*
X113245500Y-116180000D01*
X113245500Y-99104240D01*
X115101000Y-99104240D01*
X115101000Y-99396760D01*
X115158068Y-99683658D01*
X115270010Y-99953911D01*
X115432525Y-100197132D01*
X115639368Y-100403975D01*
X115813760Y-100520500D01*
X115639368Y-100637025D01*
X115432525Y-100843868D01*
X115270010Y-101087089D01*
X115158068Y-101357342D01*
X115101000Y-101644240D01*
X115101000Y-101936760D01*
X115158068Y-102223658D01*
X115270010Y-102493911D01*
X115432525Y-102737132D01*
X115639368Y-102943975D01*
X115813760Y-103060500D01*
X115639368Y-103177025D01*
X115432525Y-103383868D01*
X115270010Y-103627089D01*
X115158068Y-103897342D01*
X115101000Y-104184240D01*
X115101000Y-104476760D01*
X115158068Y-104763658D01*
X115270010Y-105033911D01*
X115432525Y-105277132D01*
X115639368Y-105483975D01*
X115813760Y-105600500D01*
X115639368Y-105717025D01*
X115432525Y-105923868D01*
X115270010Y-106167089D01*
X115158068Y-106437342D01*
X115101000Y-106724240D01*
X115101000Y-107016760D01*
X115158068Y-107303658D01*
X115270010Y-107573911D01*
X115432525Y-107817132D01*
X115639368Y-108023975D01*
X115813760Y-108140500D01*
X115639368Y-108257025D01*
X115432525Y-108463868D01*
X115270010Y-108707089D01*
X115158068Y-108977342D01*
X115101000Y-109264240D01*
X115101000Y-109556760D01*
X115158068Y-109843658D01*
X115270010Y-110113911D01*
X115432525Y-110357132D01*
X115639368Y-110563975D01*
X115813760Y-110680500D01*
X115639368Y-110797025D01*
X115432525Y-111003868D01*
X115270010Y-111247089D01*
X115158068Y-111517342D01*
X115101000Y-111804240D01*
X115101000Y-112096760D01*
X115158068Y-112383658D01*
X115270010Y-112653911D01*
X115432525Y-112897132D01*
X115639368Y-113103975D01*
X115882589Y-113266490D01*
X116152842Y-113378432D01*
X116439740Y-113435500D01*
X116732260Y-113435500D01*
X117019158Y-113378432D01*
X117289411Y-113266490D01*
X117532632Y-113103975D01*
X117739475Y-112897132D01*
X117830770Y-112760500D01*
X123988412Y-112760500D01*
X124028200Y-112764419D01*
X124067988Y-112760500D01*
X124067991Y-112760500D01*
X124186988Y-112748780D01*
X124339673Y-112702463D01*
X124480389Y-112627249D01*
X124603728Y-112526028D01*
X124629099Y-112495113D01*
X126173018Y-110951195D01*
X126203928Y-110925828D01*
X126305149Y-110802489D01*
X126319614Y-110775427D01*
X126380363Y-110661774D01*
X126401403Y-110592415D01*
X127002800Y-111193813D01*
X127002801Y-111962677D01*
X126970025Y-111995453D01*
X126851285Y-112173160D01*
X126769496Y-112370617D01*
X126727800Y-112580237D01*
X126727800Y-112793963D01*
X126769496Y-113003583D01*
X126851285Y-113201040D01*
X126970025Y-113378747D01*
X127121153Y-113529875D01*
X127298860Y-113648615D01*
X127496317Y-113730404D01*
X127705937Y-113772100D01*
X127919663Y-113772100D01*
X128129283Y-113730404D01*
X128326740Y-113648615D01*
X128504447Y-113529875D01*
X128655575Y-113378747D01*
X128774315Y-113201040D01*
X128856104Y-113003583D01*
X128897800Y-112793963D01*
X128897800Y-112580237D01*
X128856104Y-112370617D01*
X128774315Y-112173160D01*
X128655575Y-111995453D01*
X128622800Y-111962678D01*
X128622800Y-111766726D01*
X128721260Y-111832515D01*
X128918717Y-111914304D01*
X129128337Y-111956000D01*
X129342063Y-111956000D01*
X129551683Y-111914304D01*
X129749140Y-111832515D01*
X129926847Y-111713775D01*
X129959622Y-111681000D01*
X137992888Y-111681000D01*
X138331200Y-112019313D01*
X138331201Y-113131077D01*
X138298425Y-113163853D01*
X138179685Y-113341560D01*
X138097896Y-113539017D01*
X138056200Y-113748637D01*
X138056200Y-113962363D01*
X138058236Y-113972600D01*
X133359180Y-113972600D01*
X133308215Y-113849560D01*
X133189475Y-113671853D01*
X133038347Y-113520725D01*
X132860640Y-113401985D01*
X132663183Y-113320196D01*
X132453563Y-113278500D01*
X132239837Y-113278500D01*
X132030217Y-113320196D01*
X131832760Y-113401985D01*
X131655053Y-113520725D01*
X131503925Y-113671853D01*
X131385185Y-113849560D01*
X131303396Y-114047017D01*
X131261700Y-114256637D01*
X131261700Y-114470363D01*
X131303396Y-114679983D01*
X131385185Y-114877440D01*
X131503925Y-115055147D01*
X131655053Y-115206275D01*
X131832760Y-115325015D01*
X132030217Y-115406804D01*
X132239837Y-115448500D01*
X132300391Y-115448500D01*
X132313611Y-115459349D01*
X132454327Y-115534563D01*
X132607012Y-115580880D01*
X132726009Y-115592600D01*
X132726012Y-115592600D01*
X132765800Y-115596519D01*
X132805588Y-115592600D01*
X139876112Y-115592600D01*
X139915900Y-115596519D01*
X139955688Y-115592600D01*
X139955691Y-115592600D01*
X140074688Y-115580880D01*
X140227373Y-115534563D01*
X140368089Y-115459349D01*
X140491428Y-115358128D01*
X140516799Y-115327213D01*
X140911813Y-114932200D01*
X142632012Y-114932200D01*
X142671800Y-114936119D01*
X142711588Y-114932200D01*
X142711591Y-114932200D01*
X142830588Y-114920480D01*
X142932055Y-114889700D01*
X143096163Y-114889700D01*
X143305783Y-114848004D01*
X143503240Y-114766215D01*
X143680947Y-114647475D01*
X143832075Y-114496347D01*
X143950815Y-114318640D01*
X144032604Y-114121183D01*
X144033728Y-114115531D01*
X144049712Y-114120380D01*
X144168709Y-114132100D01*
X144168712Y-114132100D01*
X144208500Y-114136019D01*
X144248288Y-114132100D01*
X153858812Y-114132100D01*
X153898600Y-114136019D01*
X153938388Y-114132100D01*
X153938391Y-114132100D01*
X154057388Y-114120380D01*
X154210073Y-114074063D01*
X154276046Y-114038800D01*
X154373763Y-114038800D01*
X154583383Y-113997104D01*
X154780840Y-113915315D01*
X154958547Y-113796575D01*
X155109675Y-113645447D01*
X155228415Y-113467740D01*
X155310204Y-113270283D01*
X155351900Y-113060663D01*
X155351900Y-113014312D01*
X157580119Y-110786094D01*
X157611028Y-110760728D01*
X157712249Y-110637389D01*
X157748877Y-110568863D01*
X157787463Y-110496674D01*
X157813709Y-110410151D01*
X157833780Y-110343988D01*
X157845500Y-110224991D01*
X157845500Y-110224988D01*
X157849419Y-110185200D01*
X157845500Y-110145412D01*
X157845500Y-107968012D01*
X158133013Y-107680500D01*
X159283230Y-107680500D01*
X159374525Y-107817132D01*
X159581368Y-108023975D01*
X159755760Y-108140500D01*
X159581368Y-108257025D01*
X159374525Y-108463868D01*
X159212010Y-108707089D01*
X159100068Y-108977342D01*
X159043000Y-109264240D01*
X159043000Y-109556760D01*
X159100068Y-109843658D01*
X159212010Y-110113911D01*
X159374525Y-110357132D01*
X159581368Y-110563975D01*
X159755760Y-110680500D01*
X159581368Y-110797025D01*
X159374525Y-111003868D01*
X159212010Y-111247089D01*
X159100068Y-111517342D01*
X159043000Y-111804240D01*
X159043000Y-112096760D01*
X159100068Y-112383658D01*
X159212010Y-112653911D01*
X159374525Y-112897132D01*
X159581368Y-113103975D01*
X159824589Y-113266490D01*
X160094842Y-113378432D01*
X160381740Y-113435500D01*
X160674260Y-113435500D01*
X160961158Y-113378432D01*
X161231411Y-113266490D01*
X161474632Y-113103975D01*
X161681475Y-112897132D01*
X161843990Y-112653911D01*
X161955932Y-112383658D01*
X162013000Y-112096760D01*
X162013000Y-111804240D01*
X161955932Y-111517342D01*
X161843990Y-111247089D01*
X161681475Y-111003868D01*
X161474632Y-110797025D01*
X161300240Y-110680500D01*
X161474632Y-110563975D01*
X161681475Y-110357132D01*
X161843990Y-110113911D01*
X161955932Y-109843658D01*
X162013000Y-109556760D01*
X162013000Y-109264240D01*
X161955932Y-108977342D01*
X161843990Y-108707089D01*
X161681475Y-108463868D01*
X161474632Y-108257025D01*
X161300240Y-108140500D01*
X161474632Y-108023975D01*
X161681475Y-107817132D01*
X161843990Y-107573911D01*
X161955932Y-107303658D01*
X162013000Y-107016760D01*
X162013000Y-106724240D01*
X161955932Y-106437342D01*
X161843990Y-106167089D01*
X161681475Y-105923868D01*
X161474632Y-105717025D01*
X161300240Y-105600500D01*
X161474632Y-105483975D01*
X161681475Y-105277132D01*
X161843990Y-105033911D01*
X161955932Y-104763658D01*
X162013000Y-104476760D01*
X162013000Y-104184240D01*
X161955932Y-103897342D01*
X161843990Y-103627089D01*
X161681475Y-103383868D01*
X161474632Y-103177025D01*
X161300240Y-103060500D01*
X161474632Y-102943975D01*
X161681475Y-102737132D01*
X161843990Y-102493911D01*
X161955932Y-102223658D01*
X162013000Y-101936760D01*
X162013000Y-101644240D01*
X161955932Y-101357342D01*
X161843990Y-101087089D01*
X161681475Y-100843868D01*
X161474632Y-100637025D01*
X161300240Y-100520500D01*
X161474632Y-100403975D01*
X161681475Y-100197132D01*
X161843990Y-99953911D01*
X161955932Y-99683658D01*
X162013000Y-99396760D01*
X162013000Y-99104240D01*
X161955932Y-98817342D01*
X161843990Y-98547089D01*
X161681475Y-98303868D01*
X161474632Y-98097025D01*
X161231411Y-97934510D01*
X160961158Y-97822568D01*
X160674260Y-97765500D01*
X160381740Y-97765500D01*
X160094842Y-97822568D01*
X159824589Y-97934510D01*
X159581368Y-98097025D01*
X159374525Y-98303868D01*
X159283230Y-98440500D01*
X159022013Y-98440500D01*
X156937900Y-96356387D01*
X156912528Y-96325472D01*
X156789189Y-96224251D01*
X156648473Y-96149037D01*
X156495788Y-96102720D01*
X156376791Y-96091000D01*
X156376788Y-96091000D01*
X156337000Y-96087081D01*
X156297212Y-96091000D01*
X149179513Y-96091000D01*
X148291639Y-95203127D01*
X148266268Y-95172212D01*
X148142929Y-95070991D01*
X148002213Y-94995777D01*
X147849528Y-94949460D01*
X147730531Y-94937740D01*
X147730528Y-94937740D01*
X147690740Y-94933821D01*
X147650952Y-94937740D01*
X130593347Y-94937740D01*
X130553559Y-94933821D01*
X130513771Y-94937740D01*
X130513769Y-94937740D01*
X130394772Y-94949460D01*
X130242087Y-94995777D01*
X130195931Y-95020448D01*
X130101370Y-95070991D01*
X130062459Y-95102925D01*
X129978032Y-95172212D01*
X129952665Y-95203122D01*
X129463800Y-95691987D01*
X128959799Y-95187987D01*
X128934428Y-95157072D01*
X128811089Y-95055851D01*
X128670373Y-94980637D01*
X128517688Y-94934320D01*
X128398691Y-94922600D01*
X128398688Y-94922600D01*
X128358900Y-94918681D01*
X128319112Y-94922600D01*
X121477188Y-94922600D01*
X121437400Y-94918681D01*
X121397612Y-94922600D01*
X121397609Y-94922600D01*
X121278612Y-94934320D01*
X121125927Y-94980637D01*
X121060424Y-95015649D01*
X120985210Y-95055851D01*
X120927851Y-95102925D01*
X120861872Y-95157072D01*
X120836505Y-95187982D01*
X117730047Y-98294440D01*
X117532632Y-98097025D01*
X117289411Y-97934510D01*
X117019158Y-97822568D01*
X116732260Y-97765500D01*
X116439740Y-97765500D01*
X116152842Y-97822568D01*
X115882589Y-97934510D01*
X115639368Y-98097025D01*
X115432525Y-98303868D01*
X115270010Y-98547089D01*
X115158068Y-98817342D01*
X115101000Y-99104240D01*
X113245500Y-99104240D01*
X113245500Y-94703500D01*
X163551001Y-94703500D01*
X163551000Y-116180000D01*
%TA.AperFunction,Conductor*%
D15*
G36*
X163551000Y-116180000D02*
G01*
X113245500Y-116180000D01*
X113245500Y-99104240D01*
X115101000Y-99104240D01*
X115101000Y-99396760D01*
X115158068Y-99683658D01*
X115270010Y-99953911D01*
X115432525Y-100197132D01*
X115639368Y-100403975D01*
X115813760Y-100520500D01*
X115639368Y-100637025D01*
X115432525Y-100843868D01*
X115270010Y-101087089D01*
X115158068Y-101357342D01*
X115101000Y-101644240D01*
X115101000Y-101936760D01*
X115158068Y-102223658D01*
X115270010Y-102493911D01*
X115432525Y-102737132D01*
X115639368Y-102943975D01*
X115813760Y-103060500D01*
X115639368Y-103177025D01*
X115432525Y-103383868D01*
X115270010Y-103627089D01*
X115158068Y-103897342D01*
X115101000Y-104184240D01*
X115101000Y-104476760D01*
X115158068Y-104763658D01*
X115270010Y-105033911D01*
X115432525Y-105277132D01*
X115639368Y-105483975D01*
X115813760Y-105600500D01*
X115639368Y-105717025D01*
X115432525Y-105923868D01*
X115270010Y-106167089D01*
X115158068Y-106437342D01*
X115101000Y-106724240D01*
X115101000Y-107016760D01*
X115158068Y-107303658D01*
X115270010Y-107573911D01*
X115432525Y-107817132D01*
X115639368Y-108023975D01*
X115813760Y-108140500D01*
X115639368Y-108257025D01*
X115432525Y-108463868D01*
X115270010Y-108707089D01*
X115158068Y-108977342D01*
X115101000Y-109264240D01*
X115101000Y-109556760D01*
X115158068Y-109843658D01*
X115270010Y-110113911D01*
X115432525Y-110357132D01*
X115639368Y-110563975D01*
X115813760Y-110680500D01*
X115639368Y-110797025D01*
X115432525Y-111003868D01*
X115270010Y-111247089D01*
X115158068Y-111517342D01*
X115101000Y-111804240D01*
X115101000Y-112096760D01*
X115158068Y-112383658D01*
X115270010Y-112653911D01*
X115432525Y-112897132D01*
X115639368Y-113103975D01*
X115882589Y-113266490D01*
X116152842Y-113378432D01*
X116439740Y-113435500D01*
X116732260Y-113435500D01*
X117019158Y-113378432D01*
X117289411Y-113266490D01*
X117532632Y-113103975D01*
X117739475Y-112897132D01*
X117830770Y-112760500D01*
X123988412Y-112760500D01*
X124028200Y-112764419D01*
X124067988Y-112760500D01*
X124067991Y-112760500D01*
X124186988Y-112748780D01*
X124339673Y-112702463D01*
X124480389Y-112627249D01*
X124603728Y-112526028D01*
X124629099Y-112495113D01*
X126173018Y-110951195D01*
X126203928Y-110925828D01*
X126305149Y-110802489D01*
X126319614Y-110775427D01*
X126380363Y-110661774D01*
X126401403Y-110592415D01*
X127002800Y-111193813D01*
X127002801Y-111962677D01*
X126970025Y-111995453D01*
X126851285Y-112173160D01*
X126769496Y-112370617D01*
X126727800Y-112580237D01*
X126727800Y-112793963D01*
X126769496Y-113003583D01*
X126851285Y-113201040D01*
X126970025Y-113378747D01*
X127121153Y-113529875D01*
X127298860Y-113648615D01*
X127496317Y-113730404D01*
X127705937Y-113772100D01*
X127919663Y-113772100D01*
X128129283Y-113730404D01*
X128326740Y-113648615D01*
X128504447Y-113529875D01*
X128655575Y-113378747D01*
X128774315Y-113201040D01*
X128856104Y-113003583D01*
X128897800Y-112793963D01*
X128897800Y-112580237D01*
X128856104Y-112370617D01*
X128774315Y-112173160D01*
X128655575Y-111995453D01*
X128622800Y-111962678D01*
X128622800Y-111766726D01*
X128721260Y-111832515D01*
X128918717Y-111914304D01*
X129128337Y-111956000D01*
X129342063Y-111956000D01*
X129551683Y-111914304D01*
X129749140Y-111832515D01*
X129926847Y-111713775D01*
X129959622Y-111681000D01*
X137992888Y-111681000D01*
X138331200Y-112019313D01*
X138331201Y-113131077D01*
X138298425Y-113163853D01*
X138179685Y-113341560D01*
X138097896Y-113539017D01*
X138056200Y-113748637D01*
X138056200Y-113962363D01*
X138058236Y-113972600D01*
X133359180Y-113972600D01*
X133308215Y-113849560D01*
X133189475Y-113671853D01*
X133038347Y-113520725D01*
X132860640Y-113401985D01*
X132663183Y-113320196D01*
X132453563Y-113278500D01*
X132239837Y-113278500D01*
X132030217Y-113320196D01*
X131832760Y-113401985D01*
X131655053Y-113520725D01*
X131503925Y-113671853D01*
X131385185Y-113849560D01*
X131303396Y-114047017D01*
X131261700Y-114256637D01*
X131261700Y-114470363D01*
X131303396Y-114679983D01*
X131385185Y-114877440D01*
X131503925Y-115055147D01*
X131655053Y-115206275D01*
X131832760Y-115325015D01*
X132030217Y-115406804D01*
X132239837Y-115448500D01*
X132300391Y-115448500D01*
X132313611Y-115459349D01*
X132454327Y-115534563D01*
X132607012Y-115580880D01*
X132726009Y-115592600D01*
X132726012Y-115592600D01*
X132765800Y-115596519D01*
X132805588Y-115592600D01*
X139876112Y-115592600D01*
X139915900Y-115596519D01*
X139955688Y-115592600D01*
X139955691Y-115592600D01*
X140074688Y-115580880D01*
X140227373Y-115534563D01*
X140368089Y-115459349D01*
X140491428Y-115358128D01*
X140516799Y-115327213D01*
X140911813Y-114932200D01*
X142632012Y-114932200D01*
X142671800Y-114936119D01*
X142711588Y-114932200D01*
X142711591Y-114932200D01*
X142830588Y-114920480D01*
X142932055Y-114889700D01*
X143096163Y-114889700D01*
X143305783Y-114848004D01*
X143503240Y-114766215D01*
X143680947Y-114647475D01*
X143832075Y-114496347D01*
X143950815Y-114318640D01*
X144032604Y-114121183D01*
X144033728Y-114115531D01*
X144049712Y-114120380D01*
X144168709Y-114132100D01*
X144168712Y-114132100D01*
X144208500Y-114136019D01*
X144248288Y-114132100D01*
X153858812Y-114132100D01*
X153898600Y-114136019D01*
X153938388Y-114132100D01*
X153938391Y-114132100D01*
X154057388Y-114120380D01*
X154210073Y-114074063D01*
X154276046Y-114038800D01*
X154373763Y-114038800D01*
X154583383Y-113997104D01*
X154780840Y-113915315D01*
X154958547Y-113796575D01*
X155109675Y-113645447D01*
X155228415Y-113467740D01*
X155310204Y-113270283D01*
X155351900Y-113060663D01*
X155351900Y-113014312D01*
X157580119Y-110786094D01*
X157611028Y-110760728D01*
X157712249Y-110637389D01*
X157748877Y-110568863D01*
X157787463Y-110496674D01*
X157813709Y-110410151D01*
X157833780Y-110343988D01*
X157845500Y-110224991D01*
X157845500Y-110224988D01*
X157849419Y-110185200D01*
X157845500Y-110145412D01*
X157845500Y-107968012D01*
X158133013Y-107680500D01*
X159283230Y-107680500D01*
X159374525Y-107817132D01*
X159581368Y-108023975D01*
X159755760Y-108140500D01*
X159581368Y-108257025D01*
X159374525Y-108463868D01*
X159212010Y-108707089D01*
X159100068Y-108977342D01*
X159043000Y-109264240D01*
X159043000Y-109556760D01*
X159100068Y-109843658D01*
X159212010Y-110113911D01*
X159374525Y-110357132D01*
X159581368Y-110563975D01*
X159755760Y-110680500D01*
X159581368Y-110797025D01*
X159374525Y-111003868D01*
X159212010Y-111247089D01*
X159100068Y-111517342D01*
X159043000Y-111804240D01*
X159043000Y-112096760D01*
X159100068Y-112383658D01*
X159212010Y-112653911D01*
X159374525Y-112897132D01*
X159581368Y-113103975D01*
X159824589Y-113266490D01*
X160094842Y-113378432D01*
X160381740Y-113435500D01*
X160674260Y-113435500D01*
X160961158Y-113378432D01*
X161231411Y-113266490D01*
X161474632Y-113103975D01*
X161681475Y-112897132D01*
X161843990Y-112653911D01*
X161955932Y-112383658D01*
X162013000Y-112096760D01*
X162013000Y-111804240D01*
X161955932Y-111517342D01*
X161843990Y-111247089D01*
X161681475Y-111003868D01*
X161474632Y-110797025D01*
X161300240Y-110680500D01*
X161474632Y-110563975D01*
X161681475Y-110357132D01*
X161843990Y-110113911D01*
X161955932Y-109843658D01*
X162013000Y-109556760D01*
X162013000Y-109264240D01*
X161955932Y-108977342D01*
X161843990Y-108707089D01*
X161681475Y-108463868D01*
X161474632Y-108257025D01*
X161300240Y-108140500D01*
X161474632Y-108023975D01*
X161681475Y-107817132D01*
X161843990Y-107573911D01*
X161955932Y-107303658D01*
X162013000Y-107016760D01*
X162013000Y-106724240D01*
X161955932Y-106437342D01*
X161843990Y-106167089D01*
X161681475Y-105923868D01*
X161474632Y-105717025D01*
X161300240Y-105600500D01*
X161474632Y-105483975D01*
X161681475Y-105277132D01*
X161843990Y-105033911D01*
X161955932Y-104763658D01*
X162013000Y-104476760D01*
X162013000Y-104184240D01*
X161955932Y-103897342D01*
X161843990Y-103627089D01*
X161681475Y-103383868D01*
X161474632Y-103177025D01*
X161300240Y-103060500D01*
X161474632Y-102943975D01*
X161681475Y-102737132D01*
X161843990Y-102493911D01*
X161955932Y-102223658D01*
X162013000Y-101936760D01*
X162013000Y-101644240D01*
X161955932Y-101357342D01*
X161843990Y-101087089D01*
X161681475Y-100843868D01*
X161474632Y-100637025D01*
X161300240Y-100520500D01*
X161474632Y-100403975D01*
X161681475Y-100197132D01*
X161843990Y-99953911D01*
X161955932Y-99683658D01*
X162013000Y-99396760D01*
X162013000Y-99104240D01*
X161955932Y-98817342D01*
X161843990Y-98547089D01*
X161681475Y-98303868D01*
X161474632Y-98097025D01*
X161231411Y-97934510D01*
X160961158Y-97822568D01*
X160674260Y-97765500D01*
X160381740Y-97765500D01*
X160094842Y-97822568D01*
X159824589Y-97934510D01*
X159581368Y-98097025D01*
X159374525Y-98303868D01*
X159283230Y-98440500D01*
X159022013Y-98440500D01*
X156937900Y-96356387D01*
X156912528Y-96325472D01*
X156789189Y-96224251D01*
X156648473Y-96149037D01*
X156495788Y-96102720D01*
X156376791Y-96091000D01*
X156376788Y-96091000D01*
X156337000Y-96087081D01*
X156297212Y-96091000D01*
X149179513Y-96091000D01*
X148291639Y-95203127D01*
X148266268Y-95172212D01*
X148142929Y-95070991D01*
X148002213Y-94995777D01*
X147849528Y-94949460D01*
X147730531Y-94937740D01*
X147730528Y-94937740D01*
X147690740Y-94933821D01*
X147650952Y-94937740D01*
X130593347Y-94937740D01*
X130553559Y-94933821D01*
X130513771Y-94937740D01*
X130513769Y-94937740D01*
X130394772Y-94949460D01*
X130242087Y-94995777D01*
X130195931Y-95020448D01*
X130101370Y-95070991D01*
X130062459Y-95102925D01*
X129978032Y-95172212D01*
X129952665Y-95203122D01*
X129463800Y-95691987D01*
X128959799Y-95187987D01*
X128934428Y-95157072D01*
X128811089Y-95055851D01*
X128670373Y-94980637D01*
X128517688Y-94934320D01*
X128398691Y-94922600D01*
X128398688Y-94922600D01*
X128358900Y-94918681D01*
X128319112Y-94922600D01*
X121477188Y-94922600D01*
X121437400Y-94918681D01*
X121397612Y-94922600D01*
X121397609Y-94922600D01*
X121278612Y-94934320D01*
X121125927Y-94980637D01*
X121060424Y-95015649D01*
X120985210Y-95055851D01*
X120927851Y-95102925D01*
X120861872Y-95157072D01*
X120836505Y-95187982D01*
X117730047Y-98294440D01*
X117532632Y-98097025D01*
X117289411Y-97934510D01*
X117019158Y-97822568D01*
X116732260Y-97765500D01*
X116439740Y-97765500D01*
X116152842Y-97822568D01*
X115882589Y-97934510D01*
X115639368Y-98097025D01*
X115432525Y-98303868D01*
X115270010Y-98547089D01*
X115158068Y-98817342D01*
X115101000Y-99104240D01*
X113245500Y-99104240D01*
X113245500Y-94703500D01*
X163551001Y-94703500D01*
X163551000Y-116180000D01*
G37*
%TD.AperFunction*%
D14*
X124818401Y-110014786D02*
X123692688Y-111140500D01*
X117830770Y-111140500D01*
X117739475Y-111003868D01*
X117532632Y-110797025D01*
X117358240Y-110680500D01*
X117532632Y-110563975D01*
X117739475Y-110357132D01*
X117901990Y-110113911D01*
X118013932Y-109843658D01*
X118071000Y-109556760D01*
X118071000Y-109264240D01*
X118013932Y-108977342D01*
X117901990Y-108707089D01*
X117739475Y-108463868D01*
X117532632Y-108257025D01*
X117358240Y-108140500D01*
X117532632Y-108023975D01*
X117739475Y-107817132D01*
X117898656Y-107578900D01*
X119671578Y-107578900D01*
X119704353Y-107611675D01*
X119882060Y-107730415D01*
X120079517Y-107812204D01*
X120289137Y-107853900D01*
X120502863Y-107853900D01*
X120712483Y-107812204D01*
X120909940Y-107730415D01*
X121087647Y-107611675D01*
X121238775Y-107460547D01*
X121357515Y-107282840D01*
X121439304Y-107085383D01*
X121481000Y-106875763D01*
X121481000Y-106662037D01*
X121439304Y-106452417D01*
X121357515Y-106254960D01*
X121238775Y-106077253D01*
X121124598Y-105963076D01*
X121303640Y-105888915D01*
X121481347Y-105770175D01*
X121632475Y-105619047D01*
X121751215Y-105441340D01*
X121833004Y-105243883D01*
X121874700Y-105034263D01*
X121874700Y-104820537D01*
X121833004Y-104610917D01*
X121751215Y-104413460D01*
X121632475Y-104235753D01*
X121481347Y-104084625D01*
X121303640Y-103965885D01*
X121106183Y-103884096D01*
X120896563Y-103842400D01*
X120850212Y-103842400D01*
X120793699Y-103785887D01*
X120768328Y-103754972D01*
X120644989Y-103653751D01*
X120504273Y-103578537D01*
X120351588Y-103532220D01*
X120232591Y-103520500D01*
X120232588Y-103520500D01*
X120192800Y-103516581D01*
X120153012Y-103520500D01*
X117830770Y-103520500D01*
X117739475Y-103383868D01*
X117532632Y-103177025D01*
X117358240Y-103060500D01*
X117532632Y-102943975D01*
X117739475Y-102737132D01*
X117830770Y-102600500D01*
X118895712Y-102600500D01*
X118935500Y-102604419D01*
X118975288Y-102600500D01*
X118975291Y-102600500D01*
X119094288Y-102588780D01*
X119246973Y-102542463D01*
X119387689Y-102467249D01*
X119511028Y-102366028D01*
X119536399Y-102335113D01*
X120210813Y-101660700D01*
X123620112Y-101660700D01*
X123659900Y-101664619D01*
X123699688Y-101660700D01*
X123699691Y-101660700D01*
X123818688Y-101648980D01*
X123971373Y-101602663D01*
X124112089Y-101527449D01*
X124235428Y-101426228D01*
X124260800Y-101395312D01*
X124818400Y-100837712D01*
X124818401Y-110014786D01*
%TA.AperFunction,Conductor*%
D15*
G36*
X124818401Y-110014786D02*
G01*
X123692688Y-111140500D01*
X117830770Y-111140500D01*
X117739475Y-111003868D01*
X117532632Y-110797025D01*
X117358240Y-110680500D01*
X117532632Y-110563975D01*
X117739475Y-110357132D01*
X117901990Y-110113911D01*
X118013932Y-109843658D01*
X118071000Y-109556760D01*
X118071000Y-109264240D01*
X118013932Y-108977342D01*
X117901990Y-108707089D01*
X117739475Y-108463868D01*
X117532632Y-108257025D01*
X117358240Y-108140500D01*
X117532632Y-108023975D01*
X117739475Y-107817132D01*
X117898656Y-107578900D01*
X119671578Y-107578900D01*
X119704353Y-107611675D01*
X119882060Y-107730415D01*
X120079517Y-107812204D01*
X120289137Y-107853900D01*
X120502863Y-107853900D01*
X120712483Y-107812204D01*
X120909940Y-107730415D01*
X121087647Y-107611675D01*
X121238775Y-107460547D01*
X121357515Y-107282840D01*
X121439304Y-107085383D01*
X121481000Y-106875763D01*
X121481000Y-106662037D01*
X121439304Y-106452417D01*
X121357515Y-106254960D01*
X121238775Y-106077253D01*
X121124598Y-105963076D01*
X121303640Y-105888915D01*
X121481347Y-105770175D01*
X121632475Y-105619047D01*
X121751215Y-105441340D01*
X121833004Y-105243883D01*
X121874700Y-105034263D01*
X121874700Y-104820537D01*
X121833004Y-104610917D01*
X121751215Y-104413460D01*
X121632475Y-104235753D01*
X121481347Y-104084625D01*
X121303640Y-103965885D01*
X121106183Y-103884096D01*
X120896563Y-103842400D01*
X120850212Y-103842400D01*
X120793699Y-103785887D01*
X120768328Y-103754972D01*
X120644989Y-103653751D01*
X120504273Y-103578537D01*
X120351588Y-103532220D01*
X120232591Y-103520500D01*
X120232588Y-103520500D01*
X120192800Y-103516581D01*
X120153012Y-103520500D01*
X117830770Y-103520500D01*
X117739475Y-103383868D01*
X117532632Y-103177025D01*
X117358240Y-103060500D01*
X117532632Y-102943975D01*
X117739475Y-102737132D01*
X117830770Y-102600500D01*
X118895712Y-102600500D01*
X118935500Y-102604419D01*
X118975288Y-102600500D01*
X118975291Y-102600500D01*
X119094288Y-102588780D01*
X119246973Y-102542463D01*
X119387689Y-102467249D01*
X119511028Y-102366028D01*
X119536399Y-102335113D01*
X120210813Y-101660700D01*
X123620112Y-101660700D01*
X123659900Y-101664619D01*
X123699688Y-101660700D01*
X123699691Y-101660700D01*
X123818688Y-101648980D01*
X123971373Y-101602663D01*
X124112089Y-101527449D01*
X124235428Y-101426228D01*
X124260800Y-101395312D01*
X124818400Y-100837712D01*
X124818401Y-110014786D01*
G37*
%TD.AperFunction*%
D14*
X150311700Y-104627863D02*
X150353396Y-104837483D01*
X150435185Y-105034940D01*
X150553925Y-105212647D01*
X150705053Y-105363775D01*
X150882760Y-105482515D01*
X151080217Y-105564304D01*
X151289837Y-105606000D01*
X151503563Y-105606000D01*
X151551901Y-105596385D01*
X151551901Y-106602102D01*
X151547981Y-106641900D01*
X151560984Y-106773911D01*
X151563621Y-106800688D01*
X151609032Y-106950385D01*
X151609938Y-106953373D01*
X151685151Y-107094089D01*
X151731873Y-107151019D01*
X151786373Y-107217428D01*
X151817283Y-107242795D01*
X151881793Y-107307305D01*
X151861100Y-107411337D01*
X151861100Y-107625063D01*
X151902796Y-107834683D01*
X151981255Y-108024100D01*
X150055922Y-108024100D01*
X150023147Y-107991325D01*
X149845440Y-107872585D01*
X149647983Y-107790796D01*
X149438363Y-107749100D01*
X149224637Y-107749100D01*
X149015017Y-107790796D01*
X148817560Y-107872585D01*
X148639853Y-107991325D01*
X148488725Y-108142453D01*
X148369985Y-108320160D01*
X148288196Y-108517617D01*
X148246500Y-108727237D01*
X148246500Y-108940963D01*
X148267194Y-109045000D01*
X145922712Y-109045000D01*
X147283905Y-107683808D01*
X147409917Y-107736004D01*
X147619537Y-107777700D01*
X147833263Y-107777700D01*
X148042883Y-107736004D01*
X148240340Y-107654215D01*
X148418047Y-107535475D01*
X148569175Y-107384347D01*
X148687915Y-107206640D01*
X148769704Y-107009183D01*
X148811400Y-106799563D01*
X148811400Y-106585837D01*
X148769704Y-106376217D01*
X148687915Y-106178760D01*
X148569175Y-106001053D01*
X148418047Y-105849925D01*
X148240340Y-105731185D01*
X148042883Y-105649396D01*
X147833263Y-105607700D01*
X147619537Y-105607700D01*
X147580412Y-105615482D01*
X147656140Y-105584115D01*
X147833847Y-105465375D01*
X147984975Y-105314247D01*
X148103715Y-105136540D01*
X148185504Y-104939083D01*
X148227200Y-104729463D01*
X148227200Y-104594400D01*
X150311700Y-104594400D01*
X150311700Y-104627863D01*
%TA.AperFunction,Conductor*%
D15*
G36*
X150311700Y-104627863D02*
G01*
X150353396Y-104837483D01*
X150435185Y-105034940D01*
X150553925Y-105212647D01*
X150705053Y-105363775D01*
X150882760Y-105482515D01*
X151080217Y-105564304D01*
X151289837Y-105606000D01*
X151503563Y-105606000D01*
X151551901Y-105596385D01*
X151551901Y-106602102D01*
X151547981Y-106641900D01*
X151560984Y-106773911D01*
X151563621Y-106800688D01*
X151609032Y-106950385D01*
X151609938Y-106953373D01*
X151685151Y-107094089D01*
X151731873Y-107151019D01*
X151786373Y-107217428D01*
X151817283Y-107242795D01*
X151881793Y-107307305D01*
X151861100Y-107411337D01*
X151861100Y-107625063D01*
X151902796Y-107834683D01*
X151981255Y-108024100D01*
X150055922Y-108024100D01*
X150023147Y-107991325D01*
X149845440Y-107872585D01*
X149647983Y-107790796D01*
X149438363Y-107749100D01*
X149224637Y-107749100D01*
X149015017Y-107790796D01*
X148817560Y-107872585D01*
X148639853Y-107991325D01*
X148488725Y-108142453D01*
X148369985Y-108320160D01*
X148288196Y-108517617D01*
X148246500Y-108727237D01*
X148246500Y-108940963D01*
X148267194Y-109045000D01*
X145922712Y-109045000D01*
X147283905Y-107683808D01*
X147409917Y-107736004D01*
X147619537Y-107777700D01*
X147833263Y-107777700D01*
X148042883Y-107736004D01*
X148240340Y-107654215D01*
X148418047Y-107535475D01*
X148569175Y-107384347D01*
X148687915Y-107206640D01*
X148769704Y-107009183D01*
X148811400Y-106799563D01*
X148811400Y-106585837D01*
X148769704Y-106376217D01*
X148687915Y-106178760D01*
X148569175Y-106001053D01*
X148418047Y-105849925D01*
X148240340Y-105731185D01*
X148042883Y-105649396D01*
X147833263Y-105607700D01*
X147619537Y-105607700D01*
X147580412Y-105615482D01*
X147656140Y-105584115D01*
X147833847Y-105465375D01*
X147984975Y-105314247D01*
X148103715Y-105136540D01*
X148185504Y-104939083D01*
X148227200Y-104729463D01*
X148227200Y-104594400D01*
X150311700Y-104594400D01*
X150311700Y-104627863D01*
G37*
%TD.AperFunction*%
D14*
X144349683Y-103983605D02*
X144318773Y-104008972D01*
X144285694Y-104049279D01*
X144217551Y-104132311D01*
X144180404Y-104201810D01*
X144142338Y-104273027D01*
X144096021Y-104425712D01*
X144095885Y-104427089D01*
X144080381Y-104584500D01*
X144084301Y-104624298D01*
X144084301Y-105307877D01*
X144051525Y-105340653D01*
X144011621Y-105400373D01*
X143997175Y-105378753D01*
X143846047Y-105227625D01*
X143668340Y-105108885D01*
X143470883Y-105027096D01*
X143261263Y-104985400D01*
X143047537Y-104985400D01*
X142837917Y-105027096D01*
X142640460Y-105108885D01*
X142462753Y-105227625D01*
X142311625Y-105378753D01*
X142192885Y-105556460D01*
X142111096Y-105753917D01*
X142069400Y-105963537D01*
X142069400Y-106177263D01*
X142111096Y-106386883D01*
X142192885Y-106584340D01*
X142311625Y-106762047D01*
X142462753Y-106913175D01*
X142640460Y-107031915D01*
X142837917Y-107113704D01*
X143047537Y-107155400D01*
X143093887Y-107155400D01*
X143480605Y-107542118D01*
X143505972Y-107573028D01*
X143629311Y-107674249D01*
X143770027Y-107749463D01*
X143922712Y-107795780D01*
X144041709Y-107807500D01*
X144041711Y-107807500D01*
X144081499Y-107811419D01*
X144121287Y-107807500D01*
X144869188Y-107807500D01*
X144744888Y-107931800D01*
X144698537Y-107931800D01*
X144488917Y-107973496D01*
X144291460Y-108055285D01*
X144113753Y-108174025D01*
X143962625Y-108325153D01*
X143843885Y-108502860D01*
X143762096Y-108700317D01*
X143720400Y-108909937D01*
X143720400Y-109045000D01*
X140690313Y-109045000D01*
X140752619Y-108982694D01*
X140783528Y-108957328D01*
X140854611Y-108870713D01*
X140884749Y-108833990D01*
X140939190Y-108732137D01*
X140959963Y-108693273D01*
X141006280Y-108540588D01*
X141018000Y-108421591D01*
X141018000Y-108421589D01*
X141021919Y-108381801D01*
X141018000Y-108342013D01*
X141018000Y-104839022D01*
X141165075Y-104691947D01*
X141283815Y-104514240D01*
X141365604Y-104316783D01*
X141407300Y-104107163D01*
X141407300Y-103893437D01*
X141405264Y-103883200D01*
X144450088Y-103883200D01*
X144349683Y-103983605D01*
%TA.AperFunction,Conductor*%
D15*
G36*
X144349683Y-103983605D02*
G01*
X144318773Y-104008972D01*
X144285694Y-104049279D01*
X144217551Y-104132311D01*
X144180404Y-104201810D01*
X144142338Y-104273027D01*
X144096021Y-104425712D01*
X144095885Y-104427089D01*
X144080381Y-104584500D01*
X144084301Y-104624298D01*
X144084301Y-105307877D01*
X144051525Y-105340653D01*
X144011621Y-105400373D01*
X143997175Y-105378753D01*
X143846047Y-105227625D01*
X143668340Y-105108885D01*
X143470883Y-105027096D01*
X143261263Y-104985400D01*
X143047537Y-104985400D01*
X142837917Y-105027096D01*
X142640460Y-105108885D01*
X142462753Y-105227625D01*
X142311625Y-105378753D01*
X142192885Y-105556460D01*
X142111096Y-105753917D01*
X142069400Y-105963537D01*
X142069400Y-106177263D01*
X142111096Y-106386883D01*
X142192885Y-106584340D01*
X142311625Y-106762047D01*
X142462753Y-106913175D01*
X142640460Y-107031915D01*
X142837917Y-107113704D01*
X143047537Y-107155400D01*
X143093887Y-107155400D01*
X143480605Y-107542118D01*
X143505972Y-107573028D01*
X143629311Y-107674249D01*
X143770027Y-107749463D01*
X143922712Y-107795780D01*
X144041709Y-107807500D01*
X144041711Y-107807500D01*
X144081499Y-107811419D01*
X144121287Y-107807500D01*
X144869188Y-107807500D01*
X144744888Y-107931800D01*
X144698537Y-107931800D01*
X144488917Y-107973496D01*
X144291460Y-108055285D01*
X144113753Y-108174025D01*
X143962625Y-108325153D01*
X143843885Y-108502860D01*
X143762096Y-108700317D01*
X143720400Y-108909937D01*
X143720400Y-109045000D01*
X140690313Y-109045000D01*
X140752619Y-108982694D01*
X140783528Y-108957328D01*
X140854611Y-108870713D01*
X140884749Y-108833990D01*
X140939190Y-108732137D01*
X140959963Y-108693273D01*
X141006280Y-108540588D01*
X141018000Y-108421591D01*
X141018000Y-108421589D01*
X141021919Y-108381801D01*
X141018000Y-108342013D01*
X141018000Y-104839022D01*
X141165075Y-104691947D01*
X141283815Y-104514240D01*
X141365604Y-104316783D01*
X141407300Y-104107163D01*
X141407300Y-103893437D01*
X141405264Y-103883200D01*
X144450088Y-103883200D01*
X144349683Y-103983605D01*
G37*
%TD.AperFunction*%
D14*
X132324985Y-99154840D02*
X132443725Y-99332547D01*
X132594853Y-99483675D01*
X132772560Y-99602415D01*
X132970017Y-99684204D01*
X133179637Y-99725900D01*
X133393363Y-99725900D01*
X133584675Y-99687846D01*
X133658485Y-99866040D01*
X133777225Y-100043747D01*
X133928353Y-100194875D01*
X134106060Y-100313615D01*
X134303517Y-100395404D01*
X134435716Y-100421700D01*
X129668688Y-100421700D01*
X129628900Y-100417781D01*
X129589112Y-100421700D01*
X129589109Y-100421700D01*
X129470112Y-100433420D01*
X129317427Y-100479737D01*
X129176711Y-100554951D01*
X129053372Y-100656172D01*
X129028000Y-100687088D01*
X128741383Y-100973705D01*
X128710473Y-100999072D01*
X128668783Y-101049872D01*
X128609251Y-101122411D01*
X128550836Y-101231700D01*
X128534038Y-101263127D01*
X128490858Y-101405473D01*
X128487721Y-101415813D01*
X128472081Y-101574600D01*
X128476001Y-101614398D01*
X128476000Y-102512711D01*
X128472081Y-102552500D01*
X128476000Y-102592288D01*
X128476000Y-102592290D01*
X128487720Y-102711287D01*
X128534037Y-102863972D01*
X128552332Y-102898200D01*
X128609251Y-103004689D01*
X128632024Y-103032438D01*
X128649001Y-103053124D01*
X128492753Y-103157525D01*
X128341625Y-103308653D01*
X128222885Y-103486360D01*
X128141096Y-103683817D01*
X128099400Y-103893437D01*
X128099400Y-104107163D01*
X128141096Y-104316783D01*
X128222885Y-104514240D01*
X128260100Y-104569937D01*
X128260101Y-105498377D01*
X128227325Y-105531153D01*
X128108585Y-105708860D01*
X128026796Y-105906317D01*
X127985100Y-106115937D01*
X127985100Y-106329663D01*
X128021853Y-106514432D01*
X127868863Y-106484000D01*
X127655137Y-106484000D01*
X127581400Y-106498667D01*
X127581400Y-100767112D01*
X127970513Y-100378000D01*
X130008212Y-100378000D01*
X130048000Y-100381919D01*
X130087788Y-100378000D01*
X130087791Y-100378000D01*
X130206788Y-100366280D01*
X130359473Y-100319963D01*
X130500189Y-100244749D01*
X130623528Y-100143528D01*
X130648899Y-100112613D01*
X131717013Y-99044500D01*
X132091012Y-99044500D01*
X132130800Y-99048419D01*
X132170588Y-99044500D01*
X132170591Y-99044500D01*
X132275021Y-99034215D01*
X132324985Y-99154840D01*
%TA.AperFunction,Conductor*%
D15*
G36*
X132324985Y-99154840D02*
G01*
X132443725Y-99332547D01*
X132594853Y-99483675D01*
X132772560Y-99602415D01*
X132970017Y-99684204D01*
X133179637Y-99725900D01*
X133393363Y-99725900D01*
X133584675Y-99687846D01*
X133658485Y-99866040D01*
X133777225Y-100043747D01*
X133928353Y-100194875D01*
X134106060Y-100313615D01*
X134303517Y-100395404D01*
X134435716Y-100421700D01*
X129668688Y-100421700D01*
X129628900Y-100417781D01*
X129589112Y-100421700D01*
X129589109Y-100421700D01*
X129470112Y-100433420D01*
X129317427Y-100479737D01*
X129176711Y-100554951D01*
X129053372Y-100656172D01*
X129028000Y-100687088D01*
X128741383Y-100973705D01*
X128710473Y-100999072D01*
X128668783Y-101049872D01*
X128609251Y-101122411D01*
X128550836Y-101231700D01*
X128534038Y-101263127D01*
X128490858Y-101405473D01*
X128487721Y-101415813D01*
X128472081Y-101574600D01*
X128476001Y-101614398D01*
X128476000Y-102512711D01*
X128472081Y-102552500D01*
X128476000Y-102592288D01*
X128476000Y-102592290D01*
X128487720Y-102711287D01*
X128534037Y-102863972D01*
X128552332Y-102898200D01*
X128609251Y-103004689D01*
X128632024Y-103032438D01*
X128649001Y-103053124D01*
X128492753Y-103157525D01*
X128341625Y-103308653D01*
X128222885Y-103486360D01*
X128141096Y-103683817D01*
X128099400Y-103893437D01*
X128099400Y-104107163D01*
X128141096Y-104316783D01*
X128222885Y-104514240D01*
X128260100Y-104569937D01*
X128260101Y-105498377D01*
X128227325Y-105531153D01*
X128108585Y-105708860D01*
X128026796Y-105906317D01*
X127985100Y-106115937D01*
X127985100Y-106329663D01*
X128021853Y-106514432D01*
X127868863Y-106484000D01*
X127655137Y-106484000D01*
X127581400Y-106498667D01*
X127581400Y-100767112D01*
X127970513Y-100378000D01*
X130008212Y-100378000D01*
X130048000Y-100381919D01*
X130087788Y-100378000D01*
X130087791Y-100378000D01*
X130206788Y-100366280D01*
X130359473Y-100319963D01*
X130500189Y-100244749D01*
X130623528Y-100143528D01*
X130648899Y-100112613D01*
X131717013Y-99044500D01*
X132091012Y-99044500D01*
X132130800Y-99048419D01*
X132170588Y-99044500D01*
X132170591Y-99044500D01*
X132275021Y-99034215D01*
X132324985Y-99154840D01*
G37*
%TD.AperFunction*%
D14*
X152860000Y-101046513D02*
X152860001Y-101363779D01*
X152799547Y-101303325D01*
X152621840Y-101184585D01*
X152424383Y-101102796D01*
X152214763Y-101061100D01*
X152001037Y-101061100D01*
X151791417Y-101102796D01*
X151593960Y-101184585D01*
X151461329Y-101273207D01*
X151427947Y-101239825D01*
X151250240Y-101121085D01*
X151052783Y-101039296D01*
X150843163Y-100997600D01*
X150629437Y-100997600D01*
X150419817Y-101039296D01*
X150222360Y-101121085D01*
X150044653Y-101239825D01*
X149893525Y-101390953D01*
X149774785Y-101568660D01*
X149692996Y-101766117D01*
X149651300Y-101975737D01*
X149651300Y-102022088D01*
X149410188Y-102263200D01*
X145457449Y-102263200D01*
X145533328Y-102200928D01*
X145558699Y-102170013D01*
X146886719Y-100841994D01*
X146917628Y-100816628D01*
X146964922Y-100759000D01*
X152572488Y-100759000D01*
X152860000Y-101046513D01*
%TA.AperFunction,Conductor*%
D15*
G36*
X152860000Y-101046513D02*
G01*
X152860001Y-101363779D01*
X152799547Y-101303325D01*
X152621840Y-101184585D01*
X152424383Y-101102796D01*
X152214763Y-101061100D01*
X152001037Y-101061100D01*
X151791417Y-101102796D01*
X151593960Y-101184585D01*
X151461329Y-101273207D01*
X151427947Y-101239825D01*
X151250240Y-101121085D01*
X151052783Y-101039296D01*
X150843163Y-100997600D01*
X150629437Y-100997600D01*
X150419817Y-101039296D01*
X150222360Y-101121085D01*
X150044653Y-101239825D01*
X149893525Y-101390953D01*
X149774785Y-101568660D01*
X149692996Y-101766117D01*
X149651300Y-101975737D01*
X149651300Y-102022088D01*
X149410188Y-102263200D01*
X145457449Y-102263200D01*
X145533328Y-102200928D01*
X145558699Y-102170013D01*
X146886719Y-100841994D01*
X146917628Y-100816628D01*
X146964922Y-100759000D01*
X152572488Y-100759000D01*
X152860000Y-101046513D01*
G37*
%TD.AperFunction*%
D14*
X158085605Y-99795118D02*
X158110972Y-99826028D01*
X158234311Y-99927249D01*
X158375027Y-100002463D01*
X158527712Y-100048780D01*
X158646709Y-100060500D01*
X158646712Y-100060500D01*
X158686500Y-100064419D01*
X158726288Y-100060500D01*
X159283230Y-100060500D01*
X159374525Y-100197132D01*
X159581368Y-100403975D01*
X159755760Y-100520500D01*
X159581368Y-100637025D01*
X159374525Y-100843868D01*
X159212010Y-101087089D01*
X159108900Y-101336019D01*
X159096549Y-101312911D01*
X159088324Y-101302889D01*
X158995328Y-101189572D01*
X158964418Y-101164205D01*
X155511212Y-97711000D01*
X156001488Y-97711000D01*
X158085605Y-99795118D01*
%TA.AperFunction,Conductor*%
D15*
G36*
X158085605Y-99795118D02*
G01*
X158110972Y-99826028D01*
X158234311Y-99927249D01*
X158375027Y-100002463D01*
X158527712Y-100048780D01*
X158646709Y-100060500D01*
X158646712Y-100060500D01*
X158686500Y-100064419D01*
X158726288Y-100060500D01*
X159283230Y-100060500D01*
X159374525Y-100197132D01*
X159581368Y-100403975D01*
X159755760Y-100520500D01*
X159581368Y-100637025D01*
X159374525Y-100843868D01*
X159212010Y-101087089D01*
X159108900Y-101336019D01*
X159096549Y-101312911D01*
X159088324Y-101302889D01*
X158995328Y-101189572D01*
X158964418Y-101164205D01*
X155511212Y-97711000D01*
X156001488Y-97711000D01*
X158085605Y-99795118D01*
G37*
%TD.AperFunction*%
D14*
X126426596Y-96724217D02*
X126384900Y-96933837D01*
X126384900Y-96980187D01*
X123324388Y-100040700D01*
X119915088Y-100040700D01*
X119875300Y-100036781D01*
X119835512Y-100040700D01*
X119835509Y-100040700D01*
X119716512Y-100052420D01*
X119563827Y-100098737D01*
X119503791Y-100130827D01*
X119423110Y-100173951D01*
X119378941Y-100210200D01*
X119299772Y-100275172D01*
X119274407Y-100306080D01*
X118599988Y-100980500D01*
X117830770Y-100980500D01*
X117739475Y-100843868D01*
X117532632Y-100637025D01*
X117358240Y-100520500D01*
X117532632Y-100403975D01*
X117739475Y-100197132D01*
X117830770Y-100060500D01*
X117879712Y-100060500D01*
X117919500Y-100064419D01*
X117959288Y-100060500D01*
X117959291Y-100060500D01*
X118078288Y-100048780D01*
X118230973Y-100002463D01*
X118371689Y-99927249D01*
X118495028Y-99826028D01*
X118520400Y-99795112D01*
X121772913Y-96542600D01*
X126501824Y-96542600D01*
X126426596Y-96724217D01*
%TA.AperFunction,Conductor*%
D15*
G36*
X126426596Y-96724217D02*
G01*
X126384900Y-96933837D01*
X126384900Y-96980187D01*
X123324388Y-100040700D01*
X119915088Y-100040700D01*
X119875300Y-100036781D01*
X119835512Y-100040700D01*
X119835509Y-100040700D01*
X119716512Y-100052420D01*
X119563827Y-100098737D01*
X119503791Y-100130827D01*
X119423110Y-100173951D01*
X119378941Y-100210200D01*
X119299772Y-100275172D01*
X119274407Y-100306080D01*
X118599988Y-100980500D01*
X117830770Y-100980500D01*
X117739475Y-100843868D01*
X117532632Y-100637025D01*
X117358240Y-100520500D01*
X117532632Y-100403975D01*
X117739475Y-100197132D01*
X117830770Y-100060500D01*
X117879712Y-100060500D01*
X117919500Y-100064419D01*
X117959288Y-100060500D01*
X117959291Y-100060500D01*
X118078288Y-100048780D01*
X118230973Y-100002463D01*
X118371689Y-99927249D01*
X118495028Y-99826028D01*
X118520400Y-99795112D01*
X121772913Y-96542600D01*
X126501824Y-96542600D01*
X126426596Y-96724217D01*
G37*
%TD.AperFunction*%
%TD*%
M02*
