%TF.GenerationSoftware,KiCad,Pcbnew,(5.1.10)-1*%
%TF.CreationDate,2023-08-21T21:32:28-05:00*%
%TF.ProjectId,auxFilter,61757846-696c-4746-9572-2e6b69636164,rev?*%
%TF.SameCoordinates,Original*%
%TF.FileFunction,Legend,Bot*%
%TF.FilePolarity,Positive*%
%FSLAX46Y46*%
G04 Gerber Fmt 4.6, Leading zero omitted, Abs format (unit mm)*
G04 Created by KiCad (PCBNEW (5.1.10)-1) date 2023-08-21 21:32:28*
%MOMM*%
%LPD*%
G01*
G04 APERTURE LIST*
%ADD10C,0.250000*%
G04 APERTURE END LIST*
D10*
X154632428Y-98715571D02*
X154632428Y-97215571D01*
X154061000Y-97215571D01*
X153918142Y-97287000D01*
X153846714Y-97358428D01*
X153775285Y-97501285D01*
X153775285Y-97715571D01*
X153846714Y-97858428D01*
X153918142Y-97929857D01*
X154061000Y-98001285D01*
X154632428Y-98001285D01*
X153132428Y-98715571D02*
X153132428Y-97215571D01*
X152275285Y-98715571D02*
X152918142Y-97858428D01*
X152275285Y-97215571D02*
X153132428Y-98072714D01*
X151632428Y-98144142D02*
X150489571Y-98144142D01*
X149846714Y-97358428D02*
X149775285Y-97287000D01*
X149632428Y-97215571D01*
X149275285Y-97215571D01*
X149132428Y-97287000D01*
X149061000Y-97358428D01*
X148989571Y-97501285D01*
X148989571Y-97644142D01*
X149061000Y-97858428D01*
X149918142Y-98715571D01*
X148989571Y-98715571D01*
X148489571Y-97215571D02*
X147561000Y-97215571D01*
X148061000Y-97787000D01*
X147846714Y-97787000D01*
X147703857Y-97858428D01*
X147632428Y-97929857D01*
X147561000Y-98072714D01*
X147561000Y-98429857D01*
X147632428Y-98572714D01*
X147703857Y-98644142D01*
X147846714Y-98715571D01*
X148275285Y-98715571D01*
X148418142Y-98644142D01*
X148489571Y-98572714D01*
X146989571Y-97358428D02*
X146918142Y-97287000D01*
X146775285Y-97215571D01*
X146418142Y-97215571D01*
X146275285Y-97287000D01*
X146203857Y-97358428D01*
X146132428Y-97501285D01*
X146132428Y-97644142D01*
X146203857Y-97858428D01*
X147061000Y-98715571D01*
X146132428Y-98715571D01*
X144418142Y-98287000D02*
X143703857Y-98287000D01*
X144561000Y-98715571D02*
X144061000Y-97215571D01*
X143561000Y-98715571D01*
X143061000Y-97215571D02*
X143061000Y-98429857D01*
X142989571Y-98572714D01*
X142918142Y-98644142D01*
X142775285Y-98715571D01*
X142489571Y-98715571D01*
X142346714Y-98644142D01*
X142275285Y-98572714D01*
X142203857Y-98429857D01*
X142203857Y-97215571D01*
X141632428Y-97215571D02*
X140632428Y-98715571D01*
X140632428Y-97215571D02*
X141632428Y-98715571D01*
X138918142Y-98715571D02*
X138918142Y-97215571D01*
X138346714Y-97215571D01*
X138203857Y-97287000D01*
X138132428Y-97358428D01*
X138061000Y-97501285D01*
X138061000Y-97715571D01*
X138132428Y-97858428D01*
X138203857Y-97929857D01*
X138346714Y-98001285D01*
X138918142Y-98001285D01*
X137489571Y-98287000D02*
X136775285Y-98287000D01*
X137632428Y-98715571D02*
X137132428Y-97215571D01*
X136632428Y-98715571D01*
X135275285Y-98572714D02*
X135346714Y-98644142D01*
X135561000Y-98715571D01*
X135703857Y-98715571D01*
X135918142Y-98644142D01*
X136061000Y-98501285D01*
X136132428Y-98358428D01*
X136203857Y-98072714D01*
X136203857Y-97858428D01*
X136132428Y-97572714D01*
X136061000Y-97429857D01*
X135918142Y-97287000D01*
X135703857Y-97215571D01*
X135561000Y-97215571D01*
X135346714Y-97287000D01*
X135275285Y-97358428D01*
X134632428Y-98715571D02*
X134632428Y-97215571D01*
X133775285Y-98715571D02*
X134418142Y-97858428D01*
X133775285Y-97215571D02*
X134632428Y-98072714D01*
X133132428Y-97929857D02*
X132632428Y-97929857D01*
X132418142Y-98715571D02*
X133132428Y-98715571D01*
X133132428Y-97215571D01*
X132418142Y-97215571D01*
X131989571Y-97215571D02*
X131132428Y-97215571D01*
X131561000Y-98715571D02*
X131561000Y-97215571D01*
X128989571Y-97929857D02*
X129489571Y-97929857D01*
X129489571Y-98715571D02*
X129489571Y-97215571D01*
X128775285Y-97215571D01*
X128203857Y-98715571D02*
X128203857Y-97215571D01*
X126775285Y-98715571D02*
X127489571Y-98715571D01*
X127489571Y-97215571D01*
X126489571Y-97215571D02*
X125632428Y-97215571D01*
X126061000Y-98715571D02*
X126061000Y-97215571D01*
X125132428Y-97929857D02*
X124632428Y-97929857D01*
X124418142Y-98715571D02*
X125132428Y-98715571D01*
X125132428Y-97215571D01*
X124418142Y-97215571D01*
X122918142Y-98715571D02*
X123418142Y-98001285D01*
X123775285Y-98715571D02*
X123775285Y-97215571D01*
X123203857Y-97215571D01*
X123061000Y-97287000D01*
X122989571Y-97358428D01*
X122918142Y-97501285D01*
X122918142Y-97715571D01*
X122989571Y-97858428D01*
X123061000Y-97929857D01*
X123203857Y-98001285D01*
X123775285Y-98001285D01*
X156989571Y-101072714D02*
X157061000Y-101144142D01*
X157275285Y-101215571D01*
X157418142Y-101215571D01*
X157632428Y-101144142D01*
X157775285Y-101001285D01*
X157846714Y-100858428D01*
X157918142Y-100572714D01*
X157918142Y-100358428D01*
X157846714Y-100072714D01*
X157775285Y-99929857D01*
X157632428Y-99787000D01*
X157418142Y-99715571D01*
X157275285Y-99715571D01*
X157061000Y-99787000D01*
X156989571Y-99858428D01*
X156346714Y-101215571D02*
X156346714Y-99715571D01*
X154775285Y-101215571D02*
X155275285Y-100501285D01*
X155632428Y-101215571D02*
X155632428Y-99715571D01*
X155061000Y-99715571D01*
X154918142Y-99787000D01*
X154846714Y-99858428D01*
X154775285Y-100001285D01*
X154775285Y-100215571D01*
X154846714Y-100358428D01*
X154918142Y-100429857D01*
X155061000Y-100501285D01*
X155632428Y-100501285D01*
X153275285Y-101072714D02*
X153346714Y-101144142D01*
X153561000Y-101215571D01*
X153703857Y-101215571D01*
X153918142Y-101144142D01*
X154061000Y-101001285D01*
X154132428Y-100858428D01*
X154203857Y-100572714D01*
X154203857Y-100358428D01*
X154132428Y-100072714D01*
X154061000Y-99929857D01*
X153918142Y-99787000D01*
X153703857Y-99715571D01*
X153561000Y-99715571D01*
X153346714Y-99787000D01*
X153275285Y-99858428D01*
X152632428Y-99715571D02*
X152632428Y-100929857D01*
X152561000Y-101072714D01*
X152489571Y-101144142D01*
X152346714Y-101215571D01*
X152061000Y-101215571D01*
X151918142Y-101144142D01*
X151846714Y-101072714D01*
X151775285Y-100929857D01*
X151775285Y-99715571D01*
X151061000Y-101215571D02*
X151061000Y-99715571D01*
X150561000Y-99715571D02*
X149703857Y-99715571D01*
X150132428Y-101215571D02*
X150132428Y-99715571D01*
X147561000Y-100429857D02*
X147346714Y-100501285D01*
X147275285Y-100572714D01*
X147203857Y-100715571D01*
X147203857Y-100929857D01*
X147275285Y-101072714D01*
X147346714Y-101144142D01*
X147489571Y-101215571D01*
X148061000Y-101215571D01*
X148061000Y-99715571D01*
X147561000Y-99715571D01*
X147418142Y-99787000D01*
X147346714Y-99858428D01*
X147275285Y-100001285D01*
X147275285Y-100144142D01*
X147346714Y-100287000D01*
X147418142Y-100358428D01*
X147561000Y-100429857D01*
X148061000Y-100429857D01*
X146632428Y-100787000D02*
X145918142Y-100787000D01*
X146775285Y-101215571D02*
X146275285Y-99715571D01*
X145775285Y-101215571D01*
X145346714Y-101144142D02*
X145132428Y-101215571D01*
X144775285Y-101215571D01*
X144632428Y-101144142D01*
X144561000Y-101072714D01*
X144489571Y-100929857D01*
X144489571Y-100787000D01*
X144561000Y-100644142D01*
X144632428Y-100572714D01*
X144775285Y-100501285D01*
X145061000Y-100429857D01*
X145203857Y-100358428D01*
X145275285Y-100287000D01*
X145346714Y-100144142D01*
X145346714Y-100001285D01*
X145275285Y-99858428D01*
X145203857Y-99787000D01*
X145061000Y-99715571D01*
X144703857Y-99715571D01*
X144489571Y-99787000D01*
X143846714Y-100429857D02*
X143346714Y-100429857D01*
X143132428Y-101215571D02*
X143846714Y-101215571D01*
X143846714Y-99715571D01*
X143132428Y-99715571D01*
X142489571Y-101215571D02*
X142489571Y-99715571D01*
X142132428Y-99715571D01*
X141918142Y-99787000D01*
X141775285Y-99929857D01*
X141703857Y-100072714D01*
X141632428Y-100358428D01*
X141632428Y-100572714D01*
X141703857Y-100858428D01*
X141775285Y-101001285D01*
X141918142Y-101144142D01*
X142132428Y-101215571D01*
X142489571Y-101215571D01*
X139561000Y-99715571D02*
X139275285Y-99715571D01*
X139132428Y-99787000D01*
X138989571Y-99929857D01*
X138918142Y-100215571D01*
X138918142Y-100715571D01*
X138989571Y-101001285D01*
X139132428Y-101144142D01*
X139275285Y-101215571D01*
X139561000Y-101215571D01*
X139703857Y-101144142D01*
X139846714Y-101001285D01*
X139918142Y-100715571D01*
X139918142Y-100215571D01*
X139846714Y-99929857D01*
X139703857Y-99787000D01*
X139561000Y-99715571D01*
X138275285Y-101215571D02*
X138275285Y-99715571D01*
X137418142Y-101215571D01*
X137418142Y-99715571D01*
X135775285Y-99715571D02*
X134918142Y-99715571D01*
X135346714Y-101215571D02*
X135346714Y-99715571D01*
X134418142Y-101215571D02*
X134418142Y-99715571D01*
X134418142Y-100429857D02*
X133561000Y-100429857D01*
X133561000Y-101215571D02*
X133561000Y-99715571D01*
X132846714Y-100429857D02*
X132346714Y-100429857D01*
X132132428Y-101215571D02*
X132846714Y-101215571D01*
X132846714Y-99715571D01*
X132132428Y-99715571D01*
X130346714Y-101215571D02*
X130346714Y-99715571D01*
X129775285Y-99715571D01*
X129632428Y-99787000D01*
X129561000Y-99858428D01*
X129489571Y-100001285D01*
X129489571Y-100215571D01*
X129561000Y-100358428D01*
X129632428Y-100429857D01*
X129775285Y-100501285D01*
X130346714Y-100501285D01*
X128846714Y-101215571D02*
X128846714Y-99715571D01*
X127989571Y-101215571D02*
X128632428Y-100358428D01*
X127989571Y-99715571D02*
X128846714Y-100572714D01*
X127346714Y-100644142D02*
X126203857Y-100644142D01*
X125561000Y-99858428D02*
X125489571Y-99787000D01*
X125346714Y-99715571D01*
X124989571Y-99715571D01*
X124846714Y-99787000D01*
X124775285Y-99858428D01*
X124703857Y-100001285D01*
X124703857Y-100144142D01*
X124775285Y-100358428D01*
X125632428Y-101215571D01*
X124703857Y-101215571D01*
X124203857Y-99715571D02*
X123275285Y-99715571D01*
X123775285Y-100287000D01*
X123561000Y-100287000D01*
X123418142Y-100358428D01*
X123346714Y-100429857D01*
X123275285Y-100572714D01*
X123275285Y-100929857D01*
X123346714Y-101072714D01*
X123418142Y-101144142D01*
X123561000Y-101215571D01*
X123989571Y-101215571D01*
X124132428Y-101144142D01*
X124203857Y-101072714D01*
X122703857Y-99858428D02*
X122632428Y-99787000D01*
X122489571Y-99715571D01*
X122132428Y-99715571D01*
X121989571Y-99787000D01*
X121918142Y-99858428D01*
X121846714Y-100001285D01*
X121846714Y-100144142D01*
X121918142Y-100358428D01*
X122775285Y-101215571D01*
X121846714Y-101215571D01*
X121132428Y-99715571D02*
X121275285Y-100001285D01*
X120561000Y-101144142D02*
X120346714Y-101215571D01*
X119989571Y-101215571D01*
X119846714Y-101144142D01*
X119775285Y-101072714D01*
X119703857Y-100929857D01*
X119703857Y-100787000D01*
X119775285Y-100644142D01*
X119846714Y-100572714D01*
X119989571Y-100501285D01*
X120275285Y-100429857D01*
X120418142Y-100358428D01*
X120489571Y-100287000D01*
X120561000Y-100144142D01*
X120561000Y-100001285D01*
X120489571Y-99858428D01*
X120418142Y-99787000D01*
X120275285Y-99715571D01*
X119918142Y-99715571D01*
X119703857Y-99787000D01*
X151311000Y-103715571D02*
X151311000Y-102215571D01*
X150953857Y-102215571D01*
X150739571Y-102287000D01*
X150596714Y-102429857D01*
X150525285Y-102572714D01*
X150453857Y-102858428D01*
X150453857Y-103072714D01*
X150525285Y-103358428D01*
X150596714Y-103501285D01*
X150739571Y-103644142D01*
X150953857Y-103715571D01*
X151311000Y-103715571D01*
X149811000Y-102929857D02*
X149311000Y-102929857D01*
X149096714Y-103715571D02*
X149811000Y-103715571D01*
X149811000Y-102215571D01*
X149096714Y-102215571D01*
X148453857Y-103715571D02*
X148453857Y-102215571D01*
X147953857Y-103287000D01*
X147453857Y-102215571D01*
X147453857Y-103715571D01*
X146453857Y-102215571D02*
X146168142Y-102215571D01*
X146025285Y-102287000D01*
X145882428Y-102429857D01*
X145811000Y-102715571D01*
X145811000Y-103215571D01*
X145882428Y-103501285D01*
X146025285Y-103644142D01*
X146168142Y-103715571D01*
X146453857Y-103715571D01*
X146596714Y-103644142D01*
X146739571Y-103501285D01*
X146811000Y-103215571D01*
X146811000Y-102715571D01*
X146739571Y-102429857D01*
X146596714Y-102287000D01*
X146453857Y-102215571D01*
X145168142Y-103715571D02*
X145168142Y-102215571D01*
X144811000Y-102215571D01*
X144596714Y-102287000D01*
X144453857Y-102429857D01*
X144382428Y-102572714D01*
X144311000Y-102858428D01*
X144311000Y-103072714D01*
X144382428Y-103358428D01*
X144453857Y-103501285D01*
X144596714Y-103644142D01*
X144811000Y-103715571D01*
X145168142Y-103715571D01*
X143668142Y-102215571D02*
X143668142Y-103429857D01*
X143596714Y-103572714D01*
X143525285Y-103644142D01*
X143382428Y-103715571D01*
X143096714Y-103715571D01*
X142953857Y-103644142D01*
X142882428Y-103572714D01*
X142811000Y-103429857D01*
X142811000Y-102215571D01*
X141382428Y-103715571D02*
X142096714Y-103715571D01*
X142096714Y-102215571D01*
X140953857Y-103287000D02*
X140239571Y-103287000D01*
X141096714Y-103715571D02*
X140596714Y-102215571D01*
X140096714Y-103715571D01*
X139811000Y-102215571D02*
X138953857Y-102215571D01*
X139382428Y-103715571D02*
X139382428Y-102215571D01*
X138168142Y-102215571D02*
X137882428Y-102215571D01*
X137739571Y-102287000D01*
X137596714Y-102429857D01*
X137525285Y-102715571D01*
X137525285Y-103215571D01*
X137596714Y-103501285D01*
X137739571Y-103644142D01*
X137882428Y-103715571D01*
X138168142Y-103715571D01*
X138311000Y-103644142D01*
X138453857Y-103501285D01*
X138525285Y-103215571D01*
X138525285Y-102715571D01*
X138453857Y-102429857D01*
X138311000Y-102287000D01*
X138168142Y-102215571D01*
X136025285Y-103715571D02*
X136525285Y-103001285D01*
X136882428Y-103715571D02*
X136882428Y-102215571D01*
X136311000Y-102215571D01*
X136168142Y-102287000D01*
X136096714Y-102358428D01*
X136025285Y-102501285D01*
X136025285Y-102715571D01*
X136096714Y-102858428D01*
X136168142Y-102929857D01*
X136311000Y-103001285D01*
X136882428Y-103001285D01*
X133739571Y-102929857D02*
X134239571Y-102929857D01*
X134239571Y-103715571D02*
X134239571Y-102215571D01*
X133525285Y-102215571D01*
X132953857Y-103715571D02*
X132953857Y-102215571D01*
X131525285Y-103715571D02*
X132239571Y-103715571D01*
X132239571Y-102215571D01*
X131239571Y-102215571D02*
X130382428Y-102215571D01*
X130811000Y-103715571D02*
X130811000Y-102215571D01*
X129882428Y-102929857D02*
X129382428Y-102929857D01*
X129168142Y-103715571D02*
X129882428Y-103715571D01*
X129882428Y-102215571D01*
X129168142Y-102215571D01*
X127668142Y-103715571D02*
X128168142Y-103001285D01*
X128525285Y-103715571D02*
X128525285Y-102215571D01*
X127953857Y-102215571D01*
X127811000Y-102287000D01*
X127739571Y-102358428D01*
X127668142Y-102501285D01*
X127668142Y-102715571D01*
X127739571Y-102858428D01*
X127811000Y-102929857D01*
X127953857Y-103001285D01*
X128525285Y-103001285D01*
X127096714Y-103644142D02*
X126882428Y-103715571D01*
X126525285Y-103715571D01*
X126382428Y-103644142D01*
X126311000Y-103572714D01*
X126239571Y-103429857D01*
X126239571Y-103287000D01*
X126311000Y-103144142D01*
X126382428Y-103072714D01*
X126525285Y-103001285D01*
X126811000Y-102929857D01*
X126953857Y-102858428D01*
X127025285Y-102787000D01*
X127096714Y-102644142D01*
X127096714Y-102501285D01*
X127025285Y-102358428D01*
X126953857Y-102287000D01*
X126811000Y-102215571D01*
X126453857Y-102215571D01*
X126239571Y-102287000D01*
X148989571Y-107215571D02*
X148989571Y-108287000D01*
X149061000Y-108501285D01*
X149203857Y-108644142D01*
X149418142Y-108715571D01*
X149561000Y-108715571D01*
X148346714Y-108287000D02*
X147632428Y-108287000D01*
X148489571Y-108715571D02*
X147989571Y-107215571D01*
X147489571Y-108715571D01*
X146132428Y-108715571D02*
X146632428Y-108001285D01*
X146989571Y-108715571D02*
X146989571Y-107215571D01*
X146418142Y-107215571D01*
X146275285Y-107287000D01*
X146203857Y-107358428D01*
X146132428Y-107501285D01*
X146132428Y-107715571D01*
X146203857Y-107858428D01*
X146275285Y-107929857D01*
X146418142Y-108001285D01*
X146989571Y-108001285D01*
X144632428Y-108715571D02*
X145132428Y-108001285D01*
X145489571Y-108715571D02*
X145489571Y-107215571D01*
X144918142Y-107215571D01*
X144775285Y-107287000D01*
X144703857Y-107358428D01*
X144632428Y-107501285D01*
X144632428Y-107715571D01*
X144703857Y-107858428D01*
X144775285Y-107929857D01*
X144918142Y-108001285D01*
X145489571Y-108001285D01*
X143989571Y-107929857D02*
X143489571Y-107929857D01*
X143275285Y-108715571D02*
X143989571Y-108715571D01*
X143989571Y-107215571D01*
X143275285Y-107215571D01*
X142846714Y-107215571D02*
X141989571Y-107215571D01*
X142418142Y-108715571D02*
X142418142Y-107215571D01*
X141703857Y-107215571D02*
X140846714Y-107215571D01*
X141275285Y-108715571D02*
X141275285Y-107215571D01*
X138346714Y-108572714D02*
X138418142Y-108644142D01*
X138632428Y-108715571D01*
X138775285Y-108715571D01*
X138989571Y-108644142D01*
X139132428Y-108501285D01*
X139203857Y-108358428D01*
X139275285Y-108072714D01*
X139275285Y-107858428D01*
X139203857Y-107572714D01*
X139132428Y-107429857D01*
X138989571Y-107287000D01*
X138775285Y-107215571D01*
X138632428Y-107215571D01*
X138418142Y-107287000D01*
X138346714Y-107358428D01*
X137703857Y-108715571D02*
X137703857Y-107215571D01*
X136203857Y-107287000D02*
X136346714Y-107215571D01*
X136561000Y-107215571D01*
X136775285Y-107287000D01*
X136918142Y-107429857D01*
X136989571Y-107572714D01*
X137061000Y-107858428D01*
X137061000Y-108072714D01*
X136989571Y-108358428D01*
X136918142Y-108501285D01*
X136775285Y-108644142D01*
X136561000Y-108715571D01*
X136418142Y-108715571D01*
X136203857Y-108644142D01*
X136132428Y-108572714D01*
X136132428Y-108072714D01*
X136418142Y-108072714D01*
X135561000Y-108287000D02*
X134846714Y-108287000D01*
X135703857Y-108715571D02*
X135203857Y-107215571D01*
X134703857Y-108715571D01*
X134203857Y-108715571D02*
X134203857Y-107215571D01*
X133489571Y-108715571D02*
X133489571Y-107215571D01*
X132632428Y-108715571D01*
X132632428Y-107215571D01*
X131918142Y-107929857D02*
X131418142Y-107929857D01*
X131203857Y-108715571D02*
X131918142Y-108715571D01*
X131918142Y-107215571D01*
X131203857Y-107215571D01*
X129703857Y-108715571D02*
X130203857Y-108001285D01*
X130561000Y-108715571D02*
X130561000Y-107215571D01*
X129989571Y-107215571D01*
X129846714Y-107287000D01*
X129775285Y-107358428D01*
X129703857Y-107501285D01*
X129703857Y-107715571D01*
X129775285Y-107858428D01*
X129846714Y-107929857D01*
X129989571Y-108001285D01*
X130561000Y-108001285D01*
X128775285Y-107215571D02*
X128489571Y-107215571D01*
X128346714Y-107287000D01*
X128203857Y-107429857D01*
X128132428Y-107715571D01*
X128132428Y-108215571D01*
X128203857Y-108501285D01*
X128346714Y-108644142D01*
X128489571Y-108715571D01*
X128775285Y-108715571D01*
X128918142Y-108644142D01*
X129061000Y-108501285D01*
X129132428Y-108215571D01*
X129132428Y-107715571D01*
X129061000Y-107429857D01*
X128918142Y-107287000D01*
X128775285Y-107215571D01*
X146882428Y-110787000D02*
X146168142Y-110787000D01*
X147025285Y-111215571D02*
X146525285Y-109715571D01*
X146025285Y-111215571D01*
X145525285Y-109715571D02*
X145525285Y-110929857D01*
X145453857Y-111072714D01*
X145382428Y-111144142D01*
X145239571Y-111215571D01*
X144953857Y-111215571D01*
X144811000Y-111144142D01*
X144739571Y-111072714D01*
X144668142Y-110929857D01*
X144668142Y-109715571D01*
X143168142Y-109787000D02*
X143311000Y-109715571D01*
X143525285Y-109715571D01*
X143739571Y-109787000D01*
X143882428Y-109929857D01*
X143953857Y-110072714D01*
X144025285Y-110358428D01*
X144025285Y-110572714D01*
X143953857Y-110858428D01*
X143882428Y-111001285D01*
X143739571Y-111144142D01*
X143525285Y-111215571D01*
X143382428Y-111215571D01*
X143168142Y-111144142D01*
X143096714Y-111072714D01*
X143096714Y-110572714D01*
X143382428Y-110572714D01*
X141453857Y-109715571D02*
X140453857Y-109715571D01*
X141096714Y-111215571D01*
X140096714Y-110215571D02*
X139525285Y-110215571D01*
X139882428Y-109715571D02*
X139882428Y-111001285D01*
X139811000Y-111144142D01*
X139668142Y-111215571D01*
X139525285Y-111215571D01*
X139025285Y-111215571D02*
X139025285Y-109715571D01*
X138382428Y-111215571D02*
X138382428Y-110429857D01*
X138453857Y-110287000D01*
X138596714Y-110215571D01*
X138811000Y-110215571D01*
X138953857Y-110287000D01*
X139025285Y-110358428D01*
X137596714Y-111144142D02*
X137596714Y-111215571D01*
X137668142Y-111358428D01*
X137739571Y-111429857D01*
X135882428Y-109858428D02*
X135811000Y-109787000D01*
X135668142Y-109715571D01*
X135311000Y-109715571D01*
X135168142Y-109787000D01*
X135096714Y-109858428D01*
X135025285Y-110001285D01*
X135025285Y-110144142D01*
X135096714Y-110358428D01*
X135953857Y-111215571D01*
X135025285Y-111215571D01*
X134096714Y-109715571D02*
X133953857Y-109715571D01*
X133811000Y-109787000D01*
X133739571Y-109858428D01*
X133668142Y-110001285D01*
X133596714Y-110287000D01*
X133596714Y-110644142D01*
X133668142Y-110929857D01*
X133739571Y-111072714D01*
X133811000Y-111144142D01*
X133953857Y-111215571D01*
X134096714Y-111215571D01*
X134239571Y-111144142D01*
X134311000Y-111072714D01*
X134382428Y-110929857D01*
X134453857Y-110644142D01*
X134453857Y-110287000D01*
X134382428Y-110001285D01*
X134311000Y-109858428D01*
X134239571Y-109787000D01*
X134096714Y-109715571D01*
X133025285Y-109858428D02*
X132953857Y-109787000D01*
X132811000Y-109715571D01*
X132453857Y-109715571D01*
X132311000Y-109787000D01*
X132239571Y-109858428D01*
X132168142Y-110001285D01*
X132168142Y-110144142D01*
X132239571Y-110358428D01*
X133096714Y-111215571D01*
X132168142Y-111215571D01*
X131668142Y-109715571D02*
X130739571Y-109715571D01*
X131239571Y-110287000D01*
X131025285Y-110287000D01*
X130882428Y-110358428D01*
X130811000Y-110429857D01*
X130739571Y-110572714D01*
X130739571Y-110929857D01*
X130811000Y-111072714D01*
X130882428Y-111144142D01*
X131025285Y-111215571D01*
X131453857Y-111215571D01*
X131596714Y-111144142D01*
X131668142Y-111072714D01*
X142775285Y-113715571D02*
X142775285Y-112215571D01*
X141918142Y-113715571D02*
X142561000Y-112858428D01*
X141918142Y-112215571D02*
X142775285Y-113072714D01*
X140775285Y-112929857D02*
X141275285Y-112929857D01*
X141275285Y-113715571D02*
X141275285Y-112215571D01*
X140561000Y-112215571D01*
X139275285Y-112215571D02*
X139989571Y-112215571D01*
X140061000Y-112929857D01*
X139989571Y-112858428D01*
X139846714Y-112787000D01*
X139489571Y-112787000D01*
X139346714Y-112858428D01*
X139275285Y-112929857D01*
X139203857Y-113072714D01*
X139203857Y-113429857D01*
X139275285Y-113572714D01*
X139346714Y-113644142D01*
X139489571Y-113715571D01*
X139846714Y-113715571D01*
X139989571Y-113644142D01*
X140061000Y-113572714D01*
X137561000Y-113858428D02*
X137703857Y-113787000D01*
X137846714Y-113644142D01*
X138061000Y-113429857D01*
X138203857Y-113358428D01*
X138346714Y-113358428D01*
X138275285Y-113715571D02*
X138418142Y-113644142D01*
X138561000Y-113501285D01*
X138632428Y-113215571D01*
X138632428Y-112715571D01*
X138561000Y-112429857D01*
X138418142Y-112287000D01*
X138275285Y-112215571D01*
X137989571Y-112215571D01*
X137846714Y-112287000D01*
X137703857Y-112429857D01*
X137632428Y-112715571D01*
X137632428Y-113215571D01*
X137703857Y-113501285D01*
X137846714Y-113644142D01*
X137989571Y-113715571D01*
X138275285Y-113715571D01*
X136989571Y-112929857D02*
X136489571Y-112929857D01*
X136275285Y-113715571D02*
X136989571Y-113715571D01*
X136989571Y-112215571D01*
X136275285Y-112215571D01*
X135632428Y-113715571D02*
X135632428Y-112215571D01*
X134775285Y-113715571D02*
X135418142Y-112858428D01*
X134775285Y-112215571D02*
X135632428Y-113072714D01*
M02*
