%TF.GenerationSoftware,KiCad,Pcbnew,(5.1.10)-1*%
%TF.CreationDate,2023-08-07T22:14:49-05:00*%
%TF.ProjectId,auxFilter,61757846-696c-4746-9572-2e6b69636164,rev?*%
%TF.SameCoordinates,Original*%
%TF.FileFunction,Soldermask,Top*%
%TF.FilePolarity,Negative*%
%FSLAX46Y46*%
G04 Gerber Fmt 4.6, Leading zero omitted, Abs format (unit mm)*
G04 Created by KiCad (PCBNEW (5.1.10)-1) date 2023-08-07 22:14:49*
%MOMM*%
%LPD*%
G01*
G04 APERTURE LIST*
%ADD10R,1.200000X0.750000*%
%ADD11R,0.750000X1.200000*%
%ADD12O,1.700000X1.700000*%
%ADD13R,1.700000X1.700000*%
%ADD14R,1.200000X0.900000*%
%ADD15R,0.900000X1.200000*%
%ADD16R,2.000000X1.300000*%
%ADD17R,2.000000X2.000000*%
%ADD18R,0.600000X1.500000*%
%ADD19R,1.500000X0.600000*%
G04 APERTURE END LIST*
D10*
%TO.C,C1*%
X142560000Y-115189000D03*
X144460000Y-115189000D03*
%TD*%
D11*
%TO.C,C2*%
X129730500Y-100901500D03*
X129730500Y-99001500D03*
%TD*%
D10*
%TO.C,C3*%
X149278300Y-103479600D03*
X151178300Y-103479600D03*
%TD*%
%TO.C,C4*%
X131130000Y-113474500D03*
X133030000Y-113474500D03*
%TD*%
%TO.C,C5*%
X156271000Y-106299000D03*
X154371000Y-106299000D03*
%TD*%
%TO.C,C6*%
X137475000Y-107315000D03*
X135575000Y-107315000D03*
%TD*%
%TO.C,C7*%
X154307500Y-104013000D03*
X156207500Y-104013000D03*
%TD*%
D12*
%TO.C,J1*%
X116586000Y-114490500D03*
X116586000Y-111950500D03*
X116586000Y-109410500D03*
X116586000Y-106870500D03*
X116586000Y-104330500D03*
X116586000Y-101790500D03*
X116586000Y-99250500D03*
D13*
X116586000Y-96710500D03*
%TD*%
%TO.C,J2*%
X160528000Y-96710500D03*
D12*
X160528000Y-99250500D03*
X160528000Y-101790500D03*
X160528000Y-104330500D03*
X160528000Y-106870500D03*
X160528000Y-109410500D03*
X160528000Y-111950500D03*
X160528000Y-114490500D03*
%TD*%
D14*
%TO.C,R1*%
X133053000Y-109283500D03*
X130853000Y-109283500D03*
%TD*%
D15*
%TO.C,R2*%
X143129000Y-98595000D03*
X143129000Y-100795000D03*
%TD*%
D14*
%TO.C,R3*%
X135361500Y-111442500D03*
X137561500Y-111442500D03*
%TD*%
%TO.C,R4*%
X137561500Y-109283500D03*
X135361500Y-109283500D03*
%TD*%
%TO.C,R5*%
X151531500Y-109855000D03*
X149331500Y-109855000D03*
%TD*%
%TO.C,R6*%
X149268000Y-107632500D03*
X151468000Y-107632500D03*
%TD*%
%TO.C,R7*%
X130980000Y-111569500D03*
X133180000Y-111569500D03*
%TD*%
%TO.C,R8*%
X151425000Y-105473500D03*
X149225000Y-105473500D03*
%TD*%
%TO.C,R9*%
X135488500Y-105283000D03*
X137688500Y-105283000D03*
%TD*%
%TO.C,R10*%
X156421000Y-108712000D03*
X154221000Y-108712000D03*
%TD*%
%TO.C,R11*%
X130980000Y-106807000D03*
X133180000Y-106807000D03*
%TD*%
%TO.C,R12*%
X151531500Y-112014000D03*
X149331500Y-112014000D03*
%TD*%
%TO.C,R13*%
X135361500Y-113855500D03*
X137561500Y-113855500D03*
%TD*%
%TO.C,R14*%
X156357500Y-111442500D03*
X154157500Y-111442500D03*
%TD*%
D16*
%TO.C,RV1*%
X125888500Y-100831000D03*
D17*
X121888500Y-101981000D03*
D16*
X125888500Y-103131000D03*
%TD*%
%TO.C,RV2*%
X126015500Y-111259000D03*
D17*
X122015500Y-110109000D03*
D16*
X126015500Y-108959000D03*
%TD*%
D18*
%TO.C,U1*%
X132016500Y-102331500D03*
X133286500Y-102331500D03*
X134556500Y-102331500D03*
X135826500Y-102331500D03*
X137096500Y-102331500D03*
X138366500Y-102331500D03*
X139636500Y-102331500D03*
X139636500Y-96931500D03*
X138366500Y-96931500D03*
X137096500Y-96931500D03*
X135826500Y-96931500D03*
X134556500Y-96931500D03*
X133286500Y-96931500D03*
X132016500Y-96931500D03*
%TD*%
D19*
%TO.C,U2*%
X146210000Y-104902000D03*
X146210000Y-106172000D03*
X146210000Y-107442000D03*
X146210000Y-108712000D03*
X146210000Y-109982000D03*
X146210000Y-111252000D03*
X146210000Y-112522000D03*
X140810000Y-112522000D03*
X140810000Y-111252000D03*
X140810000Y-109982000D03*
X140810000Y-108712000D03*
X140810000Y-107442000D03*
X140810000Y-106172000D03*
X140810000Y-104902000D03*
%TD*%
M02*
