M48
; DRILL file {KiCad (5.1.10)-1} date 08/07/23 22:14:54
; FORMAT={-:-/ absolute / metric / decimal}
; #@! TF.CreationDate,2023-08-07T22:14:54-05:00
; #@! TF.GenerationSoftware,Kicad,Pcbnew,(5.1.10)-1
; #@! TF.FileFunction,Plated,1,2,PTH
FMAT,2
METRIC
T1C0.500
T2C1.000
%
G90
G05
T1
X118.11Y-103.124
X118.237Y-100.457
X118.364Y-108.966
X118.364Y-110.998
X120.396Y-106.769
X120.79Y-104.927
X121.539Y-107.823
X123.063Y-105.283
X123.19Y-113.792
X124.079Y-110.109
X125.73Y-96.901
X127.47Y-97.041
X127.635Y-94.869
X127.635Y-106.172
X127.635Y-108.839
X127.762Y-107.569
X127.813Y-112.687
X127.889Y-104.14
X128.697Y-97.968
X129.07Y-106.223
X129.184Y-104.0
X129.235Y-110.871
X129.413Y-113.03
X129.464Y-96.837
X130.569Y-102.171
X130.594Y-108.153
X132.207Y-103.975
X132.347Y-114.363
X132.613Y-105.575
X133.058Y-108.255
X133.261Y-100.292
X133.286Y-98.641
X133.998Y-105.181
X134.62Y-99.352
X134.836Y-103.975
X135.572Y-101.232
X137.046Y-104.686
X137.058Y-101.143
X137.16Y-98.349
X138.417Y-101.181
X139.014Y-107.912
X139.141Y-113.855
X140.322Y-104.0
X140.843Y-99.568
X141.097Y-97.79
X141.376Y-101.295
X142.989Y-113.805
X143.129Y-104.267
X143.154Y-106.07
X143.891Y-113.005
X144.437Y-107.912
X144.45Y-100.8
X144.805Y-109.017
X144.894Y-106.032
X145.796Y-101.981
X146.006Y-97.199
X147.142Y-104.623
X147.701Y-101.727
X147.701Y-108.839
X147.726Y-106.693
X149.332Y-108.834
X149.733Y-95.885
X150.736Y-102.083
X151.397Y-104.521
X151.511Y-100.965
X152.108Y-102.146
X152.946Y-107.518
X152.946Y-109.855
X154.267Y-112.954
X155.334Y-107.531
X155.918Y-102.718
X156.21Y-98.298
X156.261Y-101.663
X157.734Y-94.996
X157.734Y-111.887
X158.242Y-108.712
X159.131Y-103.251
T2
X116.586Y-96.71
X116.586Y-99.251
X116.586Y-101.79
X116.586Y-104.331
X116.586Y-106.87
X116.586Y-109.41
X116.586Y-111.95
X116.586Y-114.49
X160.528Y-96.71
X160.528Y-99.251
X160.528Y-101.79
X160.528Y-104.331
X160.528Y-106.87
X160.528Y-109.41
X160.528Y-111.95
X160.528Y-114.49
T0
M30
